<svg width="184" height="44" viewBox="0 0 184 44" fill="none" xmlns="http://www.w3.org/2000/svg">
<g clip-path="url(#clip0_33_58)">
<path d="M61.3547 11.0673C60.8991 11.0673 60.5448 11.1912 60.2916 11.4144C60.0385 11.6623 59.912 11.9846 59.912 12.3813C59.912 12.778 60.0385 13.1003 60.2916 13.3483C60.5448 13.5962 60.8991 13.7201 61.3547 13.7201H65.8353V26.6624C65.8353 27.1087 65.9617 27.4806 66.2145 27.7533C66.468 28.0508 66.8472 28.1748 67.3536 28.1748C67.8349 28.1748 68.2141 28.0508 68.4676 27.7533C68.7204 27.4806 68.8725 27.1087 68.8725 26.6624V13.7201H73.3523C73.808 13.7201 74.1628 13.5962 74.4157 13.3483C74.6691 13.1003 74.8206 12.778 74.8206 12.3813C74.8206 11.9846 74.6691 11.6623 74.4157 11.4144C74.1628 11.1912 73.808 11.0673 73.3523 11.0673H61.3547Z" fill="#2B415B"/>
<path d="M75.0478 26.7368C75.0478 27.1583 75.1492 27.5054 75.402 27.7781C75.6555 28.0509 76.0097 28.1748 76.4653 28.1748C76.921 28.1748 77.2752 28.0509 77.5287 27.7781C77.7815 27.5054 77.9079 27.1583 77.9079 26.7368V22.5467C77.9079 19.7202 78.617 18.307 80.0846 18.307C80.4138 18.307 80.8188 18.3814 81.2744 18.5302C82.0342 18.8029 82.5655 18.6293 82.869 17.9847C83.0968 17.4888 83.0211 16.993 82.6162 16.4971C82.2113 16.026 81.5278 15.7781 80.5659 15.7781C80.0089 15.7781 79.4776 15.9269 79.0219 16.2244C78.5407 16.5219 78.1614 16.8938 77.9079 17.3648C77.9079 17.0177 77.7815 16.7202 77.5287 16.4475C77.2752 16.1748 76.921 16.026 76.4653 16.026C76.0097 16.026 75.6555 16.1748 75.402 16.4475C75.1492 16.7202 75.0478 17.0673 75.0478 17.464V26.7368Z" fill="#2B415B"/>
<path d="M90.8333 26.7368C90.8333 27.1583 90.9347 27.5054 91.1625 27.7781C91.3903 28.0509 91.7446 28.1748 92.2002 28.1748C92.6558 28.1748 92.9844 28.0509 93.2122 27.7781C93.44 27.5302 93.567 27.1831 93.567 26.7368V20.3897C93.567 17.3152 91.896 15.7781 88.5803 15.7781C86.7578 15.7781 85.3659 16.1004 84.4547 16.6954C83.8219 17.0921 83.6192 17.588 83.8219 18.1582C83.9227 18.4558 84.1004 18.6293 84.3783 18.7285C84.6568 18.8277 84.961 18.8277 85.2645 18.7285C85.3909 18.7037 85.5937 18.6541 85.8722 18.555L86.4793 18.3814C86.6063 18.3318 86.7835 18.2822 86.9856 18.2326C87.1884 18.1831 87.4162 18.1582 87.6183 18.1335C87.8211 18.1335 88.0233 18.1087 88.2511 18.1087C89.2637 18.1087 89.9471 18.3318 90.3013 18.7781C90.6562 19.2243 90.8333 19.8194 90.8333 20.6128V20.8855C90.1242 20.7863 89.2387 20.712 88.1753 20.712C86.6063 20.712 85.3152 21.0591 84.2776 21.7037C83.2393 22.3483 82.7336 23.3897 82.7336 24.7782C82.7336 25.8938 83.0878 26.7864 83.7963 27.431C84.5054 28.1005 85.5174 28.4228 86.7835 28.4228C88.6566 28.4228 89.9978 27.7285 90.8333 26.2906V26.7368ZM87.5426 26.241C86.9099 26.241 86.4286 26.0922 86.0744 25.7947C85.7201 25.4971 85.543 25.0757 85.543 24.555C85.543 23.1666 86.5557 22.4723 88.5803 22.4723C89.5422 22.4723 90.2763 22.5219 90.8333 22.5963V23.0178C90.8333 23.8608 90.5292 24.6294 89.9471 25.274C89.3401 25.9186 88.5552 26.241 87.5426 26.241Z" fill="#2B415B"/>
<path d="M96.6024 31.6955C96.6024 32.117 96.7038 32.4641 96.9566 32.7369C97.2101 33.0095 97.5644 33.1336 98.02 33.1336C98.4756 33.1336 98.8298 33.0095 99.0833 32.7369C99.3361 32.4641 99.4625 32.117 99.4625 31.6955V18.2822H102.652V31.6955C102.652 32.117 102.753 32.4641 103.007 32.7369C103.26 33.0095 103.614 33.1336 104.069 33.1336C104.525 33.1336 104.88 33.0095 105.133 32.7369C105.386 32.4641 105.513 32.117 105.513 31.6955V18.2822H107.563C108.474 18.2822 108.93 17.9103 108.93 17.1417C108.93 16.3979 108.474 16.026 107.563 16.026H105.513V15.1334C105.513 13.8441 106.018 13.1995 107.031 13.1995C107.411 13.1995 107.942 13.2987 108.651 13.4971C109.461 13.745 109.992 13.5466 110.246 12.8772C110.499 12.1582 110.17 11.6128 109.309 11.2161C108.702 10.9681 107.917 10.8193 106.905 10.8193C105.791 10.8193 104.905 11.0921 104.247 11.588C103.386 11.0921 102.374 10.8193 101.209 10.8193C99.6904 10.8193 98.5263 11.2409 97.7671 12.0342C96.9823 12.8524 96.6024 14.1665 96.6024 15.9764V31.6955ZM102.652 16.026H99.4625V15.307C99.4625 14.6128 99.5896 14.0673 99.8424 13.6706C100.096 13.2739 100.577 13.0756 101.26 13.0756C101.817 13.0756 102.399 13.1995 102.981 13.4227C102.753 14.0673 102.652 14.9351 102.652 16.026Z" fill="#2B415B"/>
<path d="M111.137 26.7367C111.137 27.1583 111.239 27.5054 111.492 27.7781C111.745 28.0508 112.099 28.1748 112.555 28.1748C113.01 28.1748 113.365 28.0508 113.618 27.7781C113.871 27.5054 113.997 27.1583 113.997 26.7367V17.464C113.997 17.0673 113.871 16.7202 113.618 16.4475C113.365 16.1747 113.01 16.026 112.555 16.026C112.099 16.026 111.745 16.1747 111.492 16.4475C111.239 16.7202 111.137 17.0673 111.137 17.464V26.7367ZM110.909 12.8276C110.909 13.3235 111.036 13.7202 111.339 13.9681C111.644 14.216 112.049 14.34 112.555 14.34C113.061 14.34 113.466 14.216 113.77 13.9433C114.073 13.6954 114.225 13.3235 114.225 12.8276C114.225 12.3813 114.073 12.0094 113.77 11.7367C113.466 11.464 113.061 11.3152 112.555 11.3152C112.049 11.3152 111.644 11.464 111.339 11.7367C111.036 12.0094 110.909 12.3813 110.909 12.8276Z" fill="#2B415B"/>
<path d="M126.157 27.2823C126.866 26.712 127.044 26.1169 126.664 25.4723C126.309 24.9269 125.752 24.8525 124.943 25.2244C123.981 25.6955 123.171 25.9186 122.512 25.9186C121.55 25.9186 120.791 25.5963 120.209 24.9269C119.627 24.2823 119.349 23.3649 119.349 22.1996C119.349 20.9847 119.627 20.0178 120.184 19.3235C120.741 18.6293 121.5 18.2822 122.487 18.2822C123.044 18.2822 123.778 18.4062 124.638 18.6541C125.449 18.9021 126.005 18.7285 126.309 18.1335C126.613 17.4888 126.385 16.9186 125.677 16.4723C124.917 16.026 123.829 15.7781 122.411 15.7781C120.538 15.7781 119.07 16.3731 118.007 17.5136C116.944 18.6541 116.412 20.2161 116.412 22.1996C116.412 24.1831 116.919 25.6955 117.956 26.7864C118.969 27.8773 120.411 28.4228 122.234 28.4228C123.854 28.4228 125.17 28.0509 126.157 27.2823Z" fill="#2B415B"/>
<path d="M134.793 24.3566C134.793 27.0839 136.058 28.4227 138.615 28.4227C139.678 28.4227 140.514 28.2491 141.172 27.8773C141.981 27.431 142.26 26.8607 141.981 26.1169C141.855 25.8442 141.653 25.6706 141.349 25.5715C141.045 25.4971 140.742 25.5219 140.437 25.6458C139.931 25.8442 139.501 25.9433 139.096 25.9433C138.564 25.9433 138.185 25.7946 137.982 25.4723C137.754 25.1748 137.653 24.6541 137.653 23.9599V12.5053C137.653 12.1086 137.527 11.7615 137.274 11.4887C137.02 11.216 136.666 11.0673 136.21 11.0673C135.755 11.0673 135.401 11.216 135.147 11.4887C134.894 11.7615 134.793 12.1086 134.793 12.5053V24.3566Z" fill="#2B415B"/>
<path d="M143.321 26.7367C143.321 27.1583 143.422 27.5054 143.676 27.7781C143.928 28.0508 144.283 28.1748 144.738 28.1748C145.194 28.1748 145.549 28.0508 145.802 27.7781C146.055 27.5054 146.181 27.1583 146.181 26.7367V17.464C146.181 17.0673 146.055 16.7202 145.802 16.4475C145.549 16.1747 145.194 16.026 144.738 16.026C144.283 16.026 143.928 16.1747 143.676 16.4475C143.422 16.7202 143.321 17.0673 143.321 17.464V26.7367ZM143.094 12.8276C143.094 13.3235 143.22 13.7202 143.523 13.9681C143.827 14.216 144.233 14.34 144.738 14.34C145.245 14.34 145.649 14.216 145.954 13.9433C146.257 13.6954 146.409 13.3235 146.409 12.8276C146.409 12.3813 146.257 12.0094 145.954 11.7367C145.649 11.464 145.245 11.3152 144.738 11.3152C144.233 11.3152 143.827 11.464 143.523 11.7367C143.22 12.0094 143.094 12.3813 143.094 12.8276Z" fill="#2B415B"/>
<path d="M148.975 19.9682C148.975 21.1335 149.33 22.0756 150.089 22.7946C149.178 23.5384 148.723 24.3319 148.723 25.1748C148.723 26.0674 149.103 26.712 149.912 27.1335C148.697 27.8277 148.09 28.7451 148.09 29.8856C148.09 30.8773 148.52 31.7203 149.406 32.3897C150.267 33.0591 151.735 33.3815 153.785 33.3815C155.81 33.3815 157.379 33.0095 158.493 32.2162C159.582 31.4228 160.138 30.4063 160.138 29.1418C160.138 28.0509 159.657 27.2823 158.746 26.8112C157.835 26.3401 156.519 26.0674 154.823 25.993C153.355 25.9434 152.342 25.7947 151.786 25.5963C151.229 25.398 150.95 25.1252 150.95 24.7533C150.95 24.3566 151.178 24.0343 151.633 23.7368C152.317 23.9847 153.127 24.1087 154.038 24.1087C155.658 24.1087 156.898 23.7368 157.784 22.9682C158.671 22.2244 159.126 21.2079 159.126 19.9682C159.126 19.3235 158.948 18.6541 158.62 17.9847H159.505C160.265 17.9847 160.67 17.6624 160.67 17.0177C160.67 16.3731 160.265 16.026 159.505 16.026H156.013C155.354 15.8773 154.696 15.7781 154.038 15.7781C152.418 15.7781 151.153 16.1748 150.292 16.9186C149.406 17.6872 148.975 18.7037 148.975 19.9682ZM154.013 28.0756C155.278 28.1748 156.139 28.2988 156.645 28.4723C157.152 28.6707 157.404 28.9682 157.404 29.3649C157.404 29.9104 157.101 30.3567 156.493 30.7038C155.886 31.0509 154.975 31.2245 153.759 31.2245C152.697 31.2245 151.912 31.0757 151.406 30.7534C150.899 30.431 150.672 30.0343 150.672 29.5633C150.672 28.8443 151.127 28.274 152.038 27.8525C152.62 27.9517 153.279 28.0261 154.013 28.0756ZM151.532 19.9682C151.532 19.3731 151.735 18.8772 152.19 18.4806C152.646 18.1087 153.253 17.9103 154.038 17.9103C154.798 17.9103 155.405 18.1087 155.86 18.4806C156.316 18.8772 156.544 19.3731 156.544 19.9682C156.544 20.588 156.316 21.0839 155.86 21.431C155.405 21.8029 154.798 21.9765 154.038 21.9765C153.253 21.9765 152.646 21.8029 152.19 21.431C151.735 21.0839 151.532 20.588 151.532 19.9682Z" fill="#2B415B"/>
<path d="M162.206 26.7367C162.206 27.1583 162.307 27.5053 162.561 27.7781C162.813 28.0508 163.168 28.1748 163.624 28.1748C164.08 28.1748 164.434 28.0508 164.687 27.7781C164.94 27.5053 165.067 27.1583 165.067 26.7367V23.5384C165.067 22.7946 165.117 22.1252 165.219 21.5301C165.319 20.9598 165.471 20.4144 165.674 19.8937C165.876 19.3731 166.206 18.9764 166.611 18.6789C167.015 18.4061 167.522 18.2574 168.129 18.2574C169.547 18.2574 170.28 19.1995 170.28 21.0343V26.7367C170.28 27.1583 170.382 27.5053 170.635 27.7781C170.888 28.0508 171.242 28.1748 171.698 28.1748C172.154 28.1748 172.509 28.0508 172.761 27.7781C173.014 27.5053 173.141 27.1583 173.141 26.7367V21.0839C173.141 19.3483 172.812 18.0095 172.154 17.1169C171.496 16.2243 170.382 15.778 168.813 15.778C168.002 15.778 167.269 15.9516 166.611 16.2987C165.952 16.6458 165.421 17.1665 165.067 17.8359V12.5053C165.067 12.1086 164.94 11.7615 164.687 11.4887C164.434 11.216 164.08 11.0673 163.624 11.0673C163.168 11.0673 162.813 11.216 162.561 11.4887C162.307 11.7615 162.206 12.1086 162.206 12.5053V26.7367Z" fill="#2B415B"/>
<path d="M176.172 24.2327C176.172 27.0344 177.438 28.4228 180.02 28.4228C181.032 28.4228 181.867 28.2492 182.551 27.8525C183.361 27.4062 183.614 26.8112 183.336 26.117C183.209 25.8443 183.006 25.6707 182.728 25.5715C182.424 25.4971 182.121 25.522 181.817 25.6459C181.311 25.8443 180.88 25.9434 180.475 25.9434C179.944 25.9434 179.564 25.7947 179.361 25.4724C179.134 25.1749 179.033 24.6541 179.033 23.9351V18.4062H181.184C182.095 18.4062 182.551 18.0095 182.551 17.2161C182.551 16.4227 182.095 16.026 181.184 16.026H179.033V14.4888C179.033 14.0921 178.906 13.745 178.653 13.4723C178.4 13.1996 178.045 13.0508 177.59 13.0508C177.134 13.0508 176.78 13.1996 176.527 13.4723C176.274 13.745 176.172 14.0921 176.172 14.4888V24.2327Z" fill="#2B415B"/>
<path d="M22.8299 43.6366C35.1318 43.6366 45.1045 33.8682 45.1045 21.8183C45.1045 9.76838 35.1318 0 22.8299 0C10.528 0 0.555328 9.76838 0.555328 21.8183C0.555328 33.8682 10.528 43.6366 22.8299 43.6366Z" fill="url(#paint0_linear_33_58)"/>
<path d="M19.7963 11.405C20.3243 11.405 20.5038 12.0917 20.0403 12.3383L12.4584 16.3712C12.1189 16.5519 11.7048 16.3122 11.7048 15.935V11.902C11.7048 11.6275 11.933 11.405 12.2144 11.405H19.7963Z" fill="white"/>
<path d="M16.65 22.1716C16.65 21.6227 16.1937 21.1777 15.6309 21.1777H12.7135C11.6644 21.1777 11.2997 19.8183 12.2144 19.3172L22.0777 13.9147C22.3877 13.7449 22.7659 13.7449 23.0759 13.9147L32.9392 19.3172C33.854 19.8183 33.4893 21.1777 32.4401 21.1777H29.5857C29.0228 21.1777 28.5665 21.6227 28.5665 22.1716V33.2211C28.5665 33.7701 28.1102 34.215 27.5474 34.215H17.6692C17.1064 34.215 16.65 33.7701 16.65 33.2211V22.1716Z" fill="white"/>
<path d="M33.4488 15.9158C33.4488 16.2974 33.0261 16.5366 32.6863 16.3472L25.4835 12.3335C25.0298 12.0807 25.2138 11.405 25.7364 11.405H32.9392C33.2206 11.405 33.4488 11.6275 33.4488 11.902V15.9158Z" fill="white"/>
</g>
<defs>
<linearGradient id="paint0_linear_33_58" x1="18.4678" y1="-6.63275" x2="36.8725" y2="46.0617" gradientUnits="userSpaceOnUse">
<stop offset="0.287293" stop-color="#49D8BD"/>
<stop offset="1" stop-color="#3793FF"/>
</linearGradient>
<clipPath id="clip0_33_58">
<rect width="184" height="44" fill="white"/>
</clipPath>
</defs>
</svg>
