<svg width="200" height="31" viewBox="0 0 200 31" fill="none" xmlns="http://www.w3.org/2000/svg">
<path d="M29.9034 14.7845C29.8551 14.3076 29.5652 14.1168 29.0338 14.1168C29.0338 14.1168 11.9807 14.1168 10.1449 14.1168C8.06763 14.1168 7.58454 14.8799 7.05314 15.9768C6.76329 16.5014 6.42512 17.2168 6.13527 17.8845C5.7971 18.5045 6.28019 19.0768 7.29469 19.0768C9.37198 19.0768 12.7053 19.0768 13.3333 19.0768C13.9614 19.0768 14.9758 19.0291 14.9758 19.0291L16.087 16.8353C16.2802 16.4537 16.57 16.1199 16.9565 15.8337C17.343 15.5476 17.7295 15.4522 18.1159 15.4522C18.1643 15.4522 18.6473 15.4522 18.6957 15.4522C19.1787 15.4522 19.4203 15.6907 19.4686 16.1199C19.5169 16.3107 19.4686 16.5491 19.372 16.7876L17.7295 20.3168C17.5362 20.6984 17.2464 21.0322 16.8599 21.2707C16.4734 21.5568 16.087 21.6522 15.7005 21.6522H15.6039H5.7971C5.41063 21.6522 5.02416 21.7953 4.63768 22.0337C4.25121 22.3199 3.96135 22.6061 3.76812 22.9876L0.67633 29.3307C0.579712 29.5691 0.531403 29.8076 0.531403 29.9984C0.579712 30.4753 0.869567 30.6661 1.40097 30.6661H21.1111C21.4976 30.6661 21.8841 30.523 22.2705 30.2845C22.657 29.9984 22.9469 29.7122 23.1401 29.3307L29.7585 15.4522C29.9034 15.2137 29.9517 14.9753 29.9034 14.7845ZM14.5411 23.083C14.5894 23.083 15.1208 23.083 15.1208 23.083C15.6039 23.1307 15.8454 23.3214 15.8937 23.7507C15.942 23.9414 15.8937 24.1799 15.7488 24.4184L14.058 27.7568C13.8647 28.1384 13.6232 28.4722 13.1884 28.7107C12.8019 28.9968 12.4155 29.0922 12.029 29.0922C11.9807 29.0922 11.4493 29.0922 11.3527 29.0922C10.9179 29.0445 10.7246 28.8061 10.6763 28.4245C10.628 28.2337 10.6763 27.9953 10.8213 27.7568L12.5121 24.4184C12.7053 24.0368 12.9469 23.703 13.3333 23.4645C13.7681 23.2261 14.1546 23.083 14.5411 23.083Z" fill="#FCB813"/>
<path d="M59.8551 5.1984C59.5652 5.00763 53.6715 0.38148 53.6715 0.38148C53.6715 0.38148 53.3333 0.238403 53.1884 0.238403C52.8986 0.238403 52.6087 0.476865 52.3672 0.953788L46.5701 12.7338C46.3768 13.1153 46.1353 13.4015 45.7488 13.6399C45.3623 13.8784 45.0242 14.0215 44.6377 14.0215H35.3623C34.9758 14.0215 34.6377 14.1646 34.2512 14.403C33.8647 14.6415 33.6232 14.9753 33.43 15.3092L26.715 29.3784C26.6184 29.6169 26.5701 29.8553 26.5701 30.0461C26.6184 30.4753 26.9082 30.7138 27.4396 30.7138H47.6812C48.0676 30.7138 48.4058 30.5707 48.7923 30.3323C49.1787 30.0938 49.4686 29.7599 49.6135 29.4261L60.0483 7.24917C60.6763 5.8184 60.1449 5.38917 59.8551 5.1984ZM45.4106 16.6923L40.0483 27.9476C39.8551 28.3292 39.6135 28.6153 39.2271 28.8538C38.9372 29.0446 38.5024 29.1399 38.0676 29.1399C38.0193 29.1399 37.4879 29.1399 37.4879 29.1399C37.1498 29.0923 36.9082 28.9015 36.8599 28.5199C36.8599 28.3292 36.9082 28.0907 37.0531 27.8523L42.4155 16.5492C42.6087 16.1676 42.8502 15.8815 43.2367 15.5953C43.6232 15.3569 43.913 15.3569 44.2512 15.3569C44.2995 15.3569 44.7826 15.3569 44.8309 15.3569C45.2657 15.4046 45.5556 15.5953 45.6039 16.0246C45.6039 16.2153 45.5556 16.4538 45.4106 16.6923Z" fill="#FCB813"/>
<path d="M199.469 14.6892C199.42 14.2123 199.13 14.0215 198.599 14.0215H178.696C178.309 14.0215 177.923 14.1646 177.536 14.403C177.15 14.6892 176.86 14.9753 176.667 15.3569L170.048 29.2353C169.952 29.4738 169.903 29.7123 169.903 29.903C169.952 30.3799 170.242 30.5707 170.773 30.5707H190.676C191.063 30.5707 191.449 30.4276 191.836 30.1892C192.222 29.903 192.512 29.6169 192.705 29.2353L199.324 15.3569C199.42 15.1184 199.469 14.8799 199.469 14.6892ZM180.483 27.6615L185.7 16.6923C185.894 16.3107 186.135 15.9769 186.57 15.7384C186.957 15.4523 187.343 15.3569 187.729 15.3569C187.778 15.3569 188.261 15.3569 188.309 15.3569C188.792 15.4046 189.034 15.5953 189.082 16.0246C189.13 16.2153 189.082 16.4538 188.937 16.6923L183.72 27.6615C183.527 28.043 183.285 28.3769 182.85 28.6153C182.464 28.9015 182.077 28.9969 181.691 28.9969C181.643 28.9969 181.111 28.9969 181.063 28.9969C180.628 28.9492 180.386 28.7584 180.338 28.3292C180.338 28.1384 180.386 27.8999 180.483 27.6615Z" fill="#EF4E23"/>
<path d="M108.358 14.6892C108.309 14.2123 108.019 14.0215 107.488 14.0215H87.5846C87.1981 14.0215 86.8116 14.1646 86.4251 14.403C86.0387 14.6892 85.7488 14.9753 85.5556 15.3569L78.9372 29.2353C78.8406 29.4738 78.7923 29.7123 78.7923 29.903C78.8406 30.3799 79.1304 30.5707 79.6618 30.5707H99.5652C99.9517 30.5707 100.338 30.4276 100.725 30.1892C101.111 29.903 101.401 29.6169 101.594 29.2353L108.213 15.3569C108.358 15.1184 108.406 14.8799 108.358 14.6892ZM89.4203 27.6615L94.6377 16.6923C94.8309 16.3107 95.0725 15.9769 95.5073 15.7384C95.8937 15.4523 96.2802 15.3569 96.6667 15.3569C96.715 15.3569 97.1981 15.3569 97.2464 15.3569C97.7295 15.4046 97.971 15.5953 98.0193 16.0246C98.0676 16.2153 98.0193 16.4538 97.8744 16.6923L92.657 27.6615C92.4638 28.043 92.2222 28.3769 91.7875 28.6153C91.401 28.9015 91.0145 28.9969 90.628 28.9969C90.5797 28.9969 90.0483 28.9969 90 28.9969C89.5652 28.9492 89.3237 28.7584 89.2754 28.3292C89.2754 28.1384 89.3237 27.8999 89.4203 27.6615Z" fill="#EF4E23"/>
<path d="M78.7923 22.2722H69.2271L66.5217 27.6614C66.3768 28.043 66.087 28.3768 65.6522 28.6153C65.2657 28.9014 64.8792 28.9968 64.4928 28.9968C64.4445 28.9968 63.9131 28.9968 63.8647 28.9968C63.43 28.9491 63.1884 28.7584 63.1401 28.3291C63.0918 28.1384 63.1401 27.8999 63.285 27.6614L68.5024 16.6922C68.6957 16.3107 68.9855 15.9768 69.372 15.7384C69.7585 15.4522 70.1449 15.3568 70.5314 15.3568C70.5797 15.3568 71.1111 15.3568 71.1111 15.3568C71.5459 15.4045 71.8358 15.5953 71.8841 16.0245C71.9324 16.2153 71.8841 16.4538 71.7391 16.6922L70.5314 19.363C70.5314 19.363 76.3768 19.363 78.2609 19.363C80.1449 19.363 80.773 17.8368 80.773 17.8368L81.9324 15.3091C82.029 15.0707 82.0773 14.8322 82.0773 14.6414C82.029 14.1645 81.7391 13.9738 81.2077 13.9738H61.8358C61.4493 13.9738 61.0628 14.1168 60.6763 14.3553C60.2899 14.6414 60 14.9276 59.8068 15.3091L53.1401 29.2353C53.0435 29.4738 52.9952 29.7122 52.9952 29.903C53.0435 30.3799 53.3333 30.5707 53.8647 30.5707C53.8647 30.5707 70.5314 30.5707 72.1739 30.5707C74.7826 30.5707 75.5556 28.7107 75.5556 28.7107L78.7923 22.2722Z" fill="#EF4E23"/>
<path d="M146.667 14.6892C146.618 14.2123 146.329 14.0215 145.797 14.0215H113.913C113.527 14.0215 113.14 14.1646 112.754 14.403C112.367 14.6892 112.077 14.9753 111.884 15.3569L105.266 29.2353C105.169 29.4738 105.072 29.7123 105.121 29.903C105.169 30.3799 105.459 30.5707 105.99 30.5707H112.609C112.995 30.5707 113.382 30.4276 113.768 30.1892C114.155 29.903 114.444 29.6169 114.638 29.2353L120.58 16.6923C120.773 16.3107 121.063 15.9769 121.449 15.7384C121.836 15.4523 122.222 15.3569 122.609 15.3569C122.657 15.3569 123.188 15.3569 123.188 15.3569C123.672 15.4046 123.913 15.5953 123.961 16.0246C124.01 16.2153 123.913 16.4538 123.816 16.6923L117.874 29.2353C117.778 29.4738 117.681 29.7123 117.729 29.903C117.778 30.3799 118.068 30.5707 118.599 30.5707H125.024C125.411 30.5707 125.797 30.4276 126.184 30.1892C126.57 29.903 126.86 29.6169 127.053 29.2353L133.043 16.6923C133.237 16.3107 133.478 15.9769 133.865 15.7384C134.251 15.4523 134.638 15.3569 135.024 15.3569C135.072 15.3569 135.604 15.3569 135.604 15.3569C136.087 15.4046 136.329 15.5953 136.377 16.0246C136.425 16.2153 136.377 16.4538 136.232 16.6923L130.676 28.4723C130.483 28.8538 130.435 29.283 130.483 29.7599C130.531 30.0938 130.773 30.5707 131.594 30.5707C131.932 30.5707 137.633 30.7138 138.164 30.7138C138.696 30.7138 139.179 30.7138 139.565 29.9984L146.425 15.3569C146.618 15.1184 146.667 14.8799 146.667 14.6892Z" fill="#EF4E23"/>
<path d="M173.285 14.6415C173.237 14.2122 172.947 13.9738 172.415 13.9738H162.319C161.787 13.9738 161.498 13.783 161.449 13.3538C161.449 13.2107 163.816 8.01225 163.913 7.86917C164.251 7.10609 164.493 6.4384 163.865 5.86609C163.237 5.29378 157.826 0.763015 157.826 0.763015C157.391 0.429169 156.957 0.524554 156.618 1.23994L143.382 29.3784C143.285 29.6169 143.237 29.8553 143.285 30.0461C143.333 30.4753 143.623 30.7138 144.106 30.7138H164.493C164.879 30.7138 165.217 30.5707 165.604 30.3322C165.99 30.0938 166.232 29.7599 166.425 29.4261L173.14 15.4046C173.237 15.0707 173.285 14.8799 173.285 14.6415ZM154.444 27.8046L159.807 16.5969C159.952 16.2153 160.242 15.9292 160.628 15.6907C161.015 15.4522 161.353 15.3092 161.739 15.3092C161.787 15.3092 162.271 15.3092 162.319 15.3092C162.754 15.3569 163.044 15.5476 163.092 15.9769C163.092 16.1676 163.092 16.4061 162.995 16.6446L157.633 27.8522C157.44 28.2338 157.198 28.5199 156.812 28.7584C156.425 28.9969 156.087 29.1399 155.7 29.1399C155.652 29.1399 155.121 29.1399 155.072 29.1399C154.638 29.0922 154.396 28.9015 154.348 28.4722C154.3 28.2815 154.348 28.0907 154.444 27.8046Z" fill="#EF4E23"/>
</svg>
