<svg width="490" height="436" viewBox="0 0 490 436" fill="none" xmlns="http://www.w3.org/2000/svg">
<path d="M451.366 128.407H79.4768C73.954 128.407 69.4768 132.884 69.4768 138.407V378.46C69.4768 383.982 73.954 388.46 79.4768 388.46H451.366C456.889 388.46 461.366 383.982 461.366 378.46V138.407C461.366 132.884 456.889 128.407 451.366 128.407Z" fill="#D1D1DF"/>
<path d="M461.366 138.695H69.4768V116.559C69.4768 112.065 73.1393 108.404 77.6342 108.404H453.153C457.648 108.404 461.31 112.065 461.31 116.559V138.695H461.366Z" fill="#233862"/>
<path d="M357.983 169.263H120.697V189.069H357.983V169.263Z" fill="white"/>
<path d="M410.146 169.263H357.928V189.069H410.146V169.263Z" fill="#FFC107"/>
<path d="M208.375 180.525H201.716V177.751H208.375V180.525ZM195.057 180.525H188.398V177.751H195.057V180.525ZM181.738 180.525H175.079V177.751H181.738V180.525ZM168.42 180.525H161.761V177.751H168.42V180.525ZM155.102 180.525H148.443V177.751H155.102V180.525ZM141.784 180.525H135.125V177.751H141.784V180.525Z" fill="#233862"/>
<path d="M244.445 222.854H120.697V233.728H244.445V222.854Z" fill="#5278FF"/>
<path d="M410.146 243.548H120.697V250.704H410.146V243.548Z" fill="white"/>
<path d="M308.928 258.915H120.697V266.072H308.928V258.915Z" fill="white"/>
<path d="M410.146 258.915H320.137V266.072H410.146V258.915Z" fill="white"/>
<path d="M261.759 274.227H120.697V281.384H261.759V274.227Z" fill="white"/>
<path d="M323.911 296.751H120.697V307.625H323.911V296.751Z" fill="#5278FF"/>
<path d="M410.146 317.389H120.697V324.545H410.146V317.389Z" fill="white"/>
<path d="M163.703 332.756H120.697V339.912H163.703V332.756Z" fill="white"/>
<path d="M410.146 332.756H174.913V339.912H410.146V332.756Z" fill="white"/>
<path d="M364.587 348.124H120.697V355.28H364.587V348.124Z" fill="white"/>
<path d="M401.656 28.4048L380.513 52.3712L365.197 44.3824L401.656 28.4048Z" fill="#5278FF"/>
<path d="M401.656 28.4048L380.513 52.3712L390.335 66.5735L401.656 28.4048Z" fill="#233862"/>
<path d="M14.1506 97.3081L32.4077 75.5054L46.2253 82.2182L14.1506 97.3081Z" fill="#233862"/>
<path d="M14.1506 97.3079L32.4077 75.5052L23.3069 63.0781L14.1506 97.3079Z" fill="#5278FF"/>
<path d="M18.59 290.038C17.7576 288.817 16.9252 287.541 16.1484 286.154L17.5912 285.322C18.3126 286.654 19.145 287.93 19.9219 289.095L18.59 290.038ZM13.2072 280.052C12.3749 278.055 11.5425 275.946 10.8211 273.783L12.3749 273.284C13.0963 275.447 13.8732 277.5 14.7055 279.442L13.2072 280.052ZM8.9898 267.347C8.43487 265.239 7.93544 263.02 7.4915 260.801L9.10079 260.468C9.54473 262.687 9.98867 264.851 10.5436 266.904L8.9898 267.347ZM6.38165 254.199C6.10418 252.036 5.82672 249.761 5.66024 247.542L7.32502 247.375C7.4915 249.594 7.76896 251.814 8.04643 253.922L6.38165 254.199ZM5.2163 240.829C5.16081 239.109 5.10532 237.389 5.10532 235.67C5.10532 235.17 5.10532 234.615 5.10532 234.116H6.7701C6.7701 234.615 6.7701 235.17 6.7701 235.67C6.7701 237.334 6.82559 239.054 6.88108 240.718L5.2163 240.829ZM7.04756 227.514L5.38278 227.403C5.49376 225.184 5.71574 222.91 5.93771 220.746L7.60248 220.912C7.38051 223.132 7.21404 225.351 7.04756 227.514ZM8.54586 214.366L6.88108 214.089C7.26953 211.87 7.71347 209.65 8.15741 207.487L9.7667 207.875C9.32276 210.039 8.87882 212.202 8.54586 214.366ZM11.487 201.495L9.87768 201.051C10.4881 198.888 11.2095 196.724 11.9864 194.671L13.5402 195.226C12.8188 197.279 12.0974 199.387 11.487 201.495ZM16.0374 189.124L14.5391 188.458C15.4824 186.405 16.4813 184.353 17.5912 182.466L19.034 183.299C17.9796 185.129 16.9807 187.127 16.0374 189.124ZM22.53 177.695L21.1427 176.752C22.419 174.866 23.8063 173.091 25.2491 171.426L26.5255 172.48C25.0827 174.089 23.7508 175.865 22.53 177.695ZM176.245 175.254C174.025 175.254 171.75 175.199 169.53 175.088L169.585 173.424C171.75 173.534 173.969 173.59 176.189 173.59L176.245 175.254ZM182.904 175.088L182.848 173.424C185.012 173.313 187.232 173.202 189.452 172.98L189.618 174.644C187.343 174.866 185.123 174.977 182.904 175.088ZM162.871 174.589C160.651 174.367 158.431 174.089 156.212 173.756L156.434 172.092C158.598 172.425 160.818 172.702 162.982 172.924L162.871 174.589ZM196.222 173.923L196 172.258C198.164 171.981 200.384 171.648 202.548 171.26L202.826 172.924C200.606 173.257 198.386 173.59 196.222 173.923ZM149.608 172.647C147.444 172.203 145.224 171.704 143.06 171.149L143.448 169.54C145.557 170.095 147.721 170.594 149.886 170.982L149.608 172.647ZM209.374 171.593L209.041 169.984C211.149 169.54 213.369 168.985 215.478 168.486L215.866 170.095C213.758 170.65 211.538 171.149 209.374 171.593ZM136.623 169.318C134.514 168.652 132.35 167.931 130.297 167.21L130.852 165.657C132.905 166.433 135.014 167.099 137.122 167.765L136.623 169.318ZM222.359 168.32L221.915 166.711C224.024 166.1 226.132 165.435 228.241 164.713L228.741 166.267C226.632 166.988 224.468 167.654 222.359 168.32ZM31.0204 167.709L29.855 166.489C31.5198 164.935 33.2401 163.493 35.0158 162.161L36.0147 163.493C34.2944 164.769 32.5742 166.211 31.0204 167.709ZM124.026 164.769C123.582 164.603 123.138 164.381 122.694 164.214C121.085 163.493 119.476 162.827 117.866 162.217L118.477 160.664C120.086 161.329 121.695 161.995 123.36 162.716C123.804 162.883 124.248 163.105 124.636 163.271L124.026 164.769ZM235.067 164.103L234.512 162.55C236.565 161.773 238.674 160.996 240.727 160.164L241.337 161.718C239.229 162.55 237.12 163.327 235.067 164.103ZM41.5085 159.887L40.6761 158.444C42.6183 157.335 44.6716 156.336 46.7248 155.449L47.3907 157.002C45.3375 157.834 43.3952 158.833 41.5085 159.887ZM111.707 159.831C109.598 159.055 107.489 158.334 105.436 157.723L105.935 156.114C107.989 156.78 110.153 157.501 112.262 158.278L111.707 159.831ZM247.497 159.11L246.831 157.557C248.829 156.669 250.882 155.782 252.88 154.838L253.601 156.336C251.548 157.335 249.495 158.223 247.497 159.11ZM99.0543 155.893C96.8901 155.338 94.7259 154.783 92.6172 154.395L92.9502 152.786C95.0589 153.23 97.2786 153.729 99.4983 154.339L99.0543 155.893ZM53.5504 154.783L53.1064 153.174C55.2152 152.564 57.4349 152.009 59.6546 151.621L59.932 153.285C57.7123 153.673 55.6036 154.173 53.5504 154.783ZM259.595 153.451L258.873 151.954C260.815 150.955 262.813 149.956 264.755 148.902L265.532 150.345C263.535 151.454 261.537 152.508 259.595 153.451ZM86.1246 153.174C83.9049 152.841 81.6852 152.619 79.5764 152.397L79.6874 150.733C81.8516 150.9 84.1268 151.177 86.3465 151.51L86.1246 153.174ZM66.4247 152.397L66.3137 150.733C68.4224 150.567 70.5866 150.456 72.8063 150.456H73.0283V152.12H72.8063C70.5866 152.176 68.4779 152.231 66.4247 152.397ZM271.359 147.238L270.527 145.796C272.413 144.741 274.356 143.632 276.298 142.467L277.13 143.909C275.188 145.019 273.246 146.128 271.359 147.238ZM282.846 140.414L281.958 139.027C283.845 137.862 285.732 136.697 287.563 135.477L288.451 136.864C286.619 138.084 284.733 139.249 282.846 140.414ZM294.055 133.147L293.112 131.76C294.943 130.539 296.775 129.263 298.606 127.987L299.549 129.374C297.718 130.65 295.887 131.926 294.055 133.147ZM304.987 125.491L303.989 124.159C305.764 122.883 307.54 121.552 309.316 120.165L310.315 121.496C308.595 122.828 306.763 124.159 304.987 125.491ZM315.642 117.391L314.588 116.059C316.308 114.728 318.084 113.286 319.804 111.899L320.858 113.175C319.138 114.617 317.362 116.059 315.642 117.391ZM326.019 109.014L324.965 107.738C326.63 106.351 328.35 104.853 330.015 103.411L331.125 104.687C329.404 106.129 327.684 107.571 326.019 109.014ZM336.119 100.248L335.009 99.0278C336.674 97.5854 338.339 96.0874 339.948 94.5895L341.058 95.8101C339.448 97.308 337.784 98.8059 336.119 100.248ZM345.997 91.2609L344.831 90.0404C346.441 88.5425 348.05 86.9891 349.659 85.4357L350.824 86.6562C349.215 88.1541 347.606 89.7075 345.997 91.2609ZM355.541 81.9406L354.376 80.7756C355.93 79.2222 357.539 77.6133 359.037 76.06L360.258 77.225C358.704 78.7784 357.151 80.3318 355.541 81.9406ZM364.92 72.343L363.699 71.1779C365.253 69.5691 366.751 67.9047 368.249 66.2959L369.47 67.4054C367.972 69.0698 366.418 70.6786 364.92 72.343ZM373.909 62.4679L372.633 61.3583C375.463 58.1406 376.961 56.3099 376.961 56.2544L378.238 57.3085C378.293 57.364 376.739 59.2502 373.909 62.4679Z" fill="#D1D1DF"/>
<path d="M103.161 300.246L102.106 298.97C103.716 297.638 105.492 296.251 107.267 294.753L108.322 296.029C106.546 297.472 104.826 298.914 103.161 300.246ZM113.482 291.702L112.428 290.426C113.982 289.095 115.702 287.652 117.478 286.099L118.588 287.375C116.757 288.873 115.092 290.315 113.482 291.702ZM123.638 282.937L122.528 281.661C124.137 280.274 125.802 278.776 127.522 277.223L128.632 278.443C126.912 280.052 125.247 281.494 123.638 282.937ZM133.571 274.005L132.461 272.784C134.07 271.342 135.679 269.788 137.344 268.291L138.454 269.511C136.789 271.064 135.18 272.562 133.571 274.005ZM143.337 264.906L142.172 263.686C143.781 262.188 145.335 260.635 147 259.081L148.165 260.302C146.556 261.855 144.947 263.409 143.337 264.906ZM152.938 255.642L151.772 254.477C153.326 252.923 154.88 251.37 156.489 249.761L157.655 250.926C156.045 252.479 154.492 254.088 152.938 255.642ZM162.316 246.155L161.095 244.99C162.649 243.381 164.203 241.772 165.701 240.163L166.922 241.328C165.424 242.937 163.87 244.546 162.316 246.155ZM171.528 236.446L170.307 235.337C171.805 233.728 173.359 232.064 174.802 230.399L176.023 231.509C174.58 233.173 173.026 234.782 171.528 236.446ZM180.462 226.516L179.186 225.406C180.684 223.742 182.127 222.022 183.57 220.358L184.846 221.467C183.459 223.187 181.96 224.851 180.462 226.516ZM189.174 216.419L187.898 215.365C189.341 213.645 190.728 211.925 192.116 210.205L193.392 211.259C192.005 212.924 190.617 214.644 189.174 216.419ZM197.554 205.989L196.222 204.99C197.609 203.215 198.941 201.44 200.273 199.72L201.605 200.719C200.273 202.438 198.941 204.214 197.554 205.989ZM205.545 195.282L204.213 194.339C205.545 192.508 206.821 190.677 208.042 188.902L209.429 189.845C208.153 191.62 206.877 193.451 205.545 195.282ZM213.092 184.242L211.704 183.354C212.925 181.468 214.146 179.582 215.256 177.751L216.699 178.638C215.533 180.469 214.313 182.355 213.092 184.242ZM220.139 172.869L218.696 172.037C219.806 170.095 220.916 168.153 221.915 166.267L223.358 167.044C222.359 168.985 221.249 170.927 220.139 172.869ZM226.465 161.107L224.967 160.386C225.966 158.389 226.909 156.336 227.797 154.395L229.296 155.06C228.408 157.058 227.464 159.055 226.465 161.107ZM231.904 148.847L230.35 148.237C231.182 146.129 231.959 144.076 232.625 142.023L234.179 142.578C233.513 144.631 232.736 146.739 231.904 148.847ZM236.232 136.198L234.623 135.754C235.233 133.591 235.733 131.427 236.177 129.319L237.786 129.652C237.342 131.815 236.843 133.979 236.232 136.198ZM238.951 123.05L237.287 122.828C237.564 120.609 237.786 118.39 237.897 116.281L239.562 116.392C239.451 118.556 239.284 120.775 238.951 123.05ZM238.008 109.735C237.897 107.516 237.73 105.297 237.398 103.189L239.062 102.967C239.395 105.13 239.562 107.405 239.673 109.68L238.008 109.735ZM236.121 96.7533C235.566 94.6451 234.9 92.537 234.123 90.4843L235.677 89.874C236.454 91.9822 237.176 94.1458 237.73 96.3094L236.121 96.7533ZM231.404 84.4927C230.405 82.6064 229.24 80.6647 228.019 78.8894L229.407 77.9463C230.683 79.8325 231.848 81.7743 232.847 83.716L231.404 84.4927ZM224.079 73.6745C222.803 72.1766 221.471 70.6787 220.028 69.2918L219.584 68.8479L220.75 67.6829L221.194 68.1267C222.636 69.5691 224.024 71.1225 225.3 72.6204L224.079 73.6745ZM37.5685 69.3472L36.5696 68.0158C36.6251 67.9603 38.5674 66.5179 42.1189 64.2433L43.0068 65.6302C39.5662 67.8493 37.624 69.3472 37.5685 69.3472ZM214.812 64.2988C213.147 62.8009 211.482 61.3584 209.762 60.027L210.817 58.751C212.537 60.1379 214.257 61.5803 215.922 63.0782L214.812 64.2988ZM48.7225 62.0796L47.8901 60.6372C49.7769 59.5277 51.7191 58.3626 53.6614 57.3086L54.4938 58.751C52.496 59.8605 50.5538 60.9701 48.7225 62.0796ZM204.546 55.9771C202.77 54.7011 200.939 53.4251 199.108 52.2601L199.995 50.8731C201.882 52.0936 203.713 53.3141 205.545 54.6456L204.546 55.9771ZM60.3205 55.6442L59.5436 54.1463C61.5413 53.1477 63.5391 52.0936 65.5368 51.1505L66.2582 52.6484C64.2605 53.5915 62.2627 54.5901 60.3205 55.6442ZM72.3069 49.8745L71.641 48.3766C73.6942 47.489 75.7474 46.6013 77.8007 45.7692L78.4111 47.3225C76.3579 48.0992 74.3046 48.9869 72.3069 49.8745ZM193.392 48.8204C191.45 47.7664 189.507 46.7123 187.565 45.7692L188.287 44.2713C190.284 45.2144 192.282 46.2685 194.224 47.378L193.392 48.8204ZM84.5708 44.937L84.0158 43.3836C86.1246 42.6069 88.2333 41.8857 90.342 41.1645L90.8414 42.7734C88.7882 43.4391 86.6795 44.1603 84.5708 44.937ZM181.516 43.0508C179.463 42.2186 177.41 41.4419 175.357 40.7207L175.912 39.1673C178.02 39.8885 180.129 40.6652 182.182 41.5529L181.516 43.0508ZM97.1676 40.7762L96.7237 39.1673C98.8879 38.5571 101.052 37.9468 103.216 37.4475L103.605 39.0564C101.496 39.6111 99.3318 40.1659 97.1676 40.7762ZM169.031 38.779C166.922 38.1687 164.758 37.6694 162.593 37.2256L162.926 35.6167C165.091 36.0606 167.31 36.6153 169.419 37.2256L169.031 38.779ZM110.042 37.6139L109.709 36.0051C111.929 35.5613 114.148 35.1729 116.313 34.7846L116.59 36.4489C114.426 36.7818 112.262 37.1701 110.042 37.6139ZM156.101 36.0051C153.937 35.6722 151.717 35.3948 149.553 35.2284L149.719 33.5641C151.939 33.786 154.214 34.0634 156.378 34.3962L156.101 36.0051ZM123.138 35.5613L122.972 33.8969C125.191 33.6195 127.467 33.4531 129.631 33.2867L129.742 34.951C127.578 35.1174 125.358 35.2839 123.138 35.5613ZM142.949 34.7846C141.395 34.7291 139.786 34.6736 138.177 34.6736C137.566 34.6736 136.956 34.6736 136.345 34.6736V33.0093C136.956 33.0093 137.566 33.0093 138.232 33.0093C139.841 33.0093 141.451 33.0648 143.06 33.1202L142.949 34.7846Z" fill="#D1D1DF"/>
<path d="M203.991 31.7331L206.044 29.0701C206.766 28.127 207.043 26.962 206.821 25.7969L206.155 22.1909C206.1 21.969 205.767 21.9135 205.711 22.1354L204.046 26.2408C203.88 26.6846 203.492 26.962 202.992 27.0175C201.938 27.1284 201.05 27.6832 200.55 28.6263L199.718 30.1242L203.991 31.7331Z" fill="#FFD7CF"/>
<path d="M203.991 31.7332L199.718 30.0688L181.516 58.9173C181.35 59.3611 180.851 59.583 180.407 59.4166L163.814 53.8133L158.21 64.9089C158.21 64.9089 173.858 71.1224 183.015 73.3415C186.178 74.1182 189.119 72.121 190.173 69.0697C193.225 59.9159 203.991 31.7332 203.991 31.7332Z" fill="#FFC107"/>
<path d="M150.552 63.4665L135.68 63.0781L143.948 31.9551H150.552V63.4665Z" fill="#163560"/>
<path d="M124.082 120.553L131.129 188.624L130.186 256.696H135.513L143.726 188.624L145.335 137.197H149.22L157.877 188.624L158.653 256.696H163.981L170.473 188.624V120.553H124.082Z" fill="#FFD7CF"/>
<path d="M173.858 262.632H168.92L161.706 260.302L163.981 256.696L173.858 261.467V262.632Z" fill="#233862"/>
<path d="M162.427 262.632H158.653V256.696H163.981L161.706 260.302L162.427 262.632Z" fill="#233862"/>
<path d="M145.391 262.632H140.452L133.238 260.302L135.513 256.696L145.391 261.467V262.632Z" fill="#233862"/>
<path d="M133.959 262.632H130.186V256.696H135.513L133.238 260.302L133.959 262.632Z" fill="#233862"/>
<path d="M121.806 124.437H178.575C180.906 124.437 182.349 121.94 181.183 119.943L164.369 86.1572L169.918 65.7414C171.639 59.4169 166.866 53.1479 160.318 53.1479H140.063C133.515 53.1479 128.743 59.4169 130.463 65.7414L136.068 86.1572L119.198 119.943C118.033 121.94 119.476 124.437 121.806 124.437Z" fill="#FFC107"/>
<path d="M129.631 178.139H170.751L174.302 120.553H123.249L129.631 178.139Z" fill="#FFC107"/>
<path d="M156.767 53.1479V59.195C156.767 60.582 155.157 61.4141 154.048 60.582L143.892 53.1479H156.767Z" fill="#FFD7CF"/>
<path d="M145.391 35.9498C145.391 36.6156 145.946 37.2258 146.667 37.2258C147.333 37.2258 147.943 36.671 147.943 35.9498C147.943 35.2841 147.388 34.6738 146.667 34.6738C145.946 34.7293 145.391 35.2841 145.391 35.9498Z" fill="#FFD7CF"/>
<path d="M152.716 38.0024H147.666L143.892 53.1479H156.767L152.716 38.0024Z" fill="#FFD7CF"/>
<path d="M155.49 43.7721H148.887C147.555 43.7721 146.445 42.7181 146.445 41.3311V28.4048H159.763V39.4449C159.819 41.8304 157.877 43.7721 155.49 43.7721Z" fill="#FFD7CF"/>
<path d="M143.837 32.4545H157.71C159.319 32.4545 160.596 31.1785 160.596 29.5697V27.4615C160.596 25.8526 159.319 24.5767 157.71 24.5767H149.664C146.445 24.5767 143.837 27.1841 143.837 30.4018V32.4545Z" fill="#163560"/>
<path d="M237.786 19.1953L161.206 36.8373L158.986 29.958L231.682 0L237.786 19.1953Z" fill="#5278FF"/>
<path d="M158.973 29.9814L155.219 31.1772L157.41 38.049L161.164 36.8531L158.973 29.9814Z" fill="#233862"/>
<path d="M185.012 32.2328L185.845 28.9596C186.122 27.7946 186.899 26.8515 187.954 26.2967L191.228 24.5769C191.45 24.4659 191.672 24.6878 191.561 24.9097L189.341 28.7932C189.119 29.1815 189.119 29.6808 189.396 30.0692C189.951 30.9568 190.062 32.0109 189.674 33.0095L189.008 34.5629L185.012 32.2328Z" fill="#FFD7CF"/>
<path d="M189.452 34.6184L184.791 31.6226L167.255 61.747C167.144 62.1908 166.644 62.4682 166.2 62.3573L137.233 55.0897L132.627 71.0673C132.627 71.0673 160.762 74.5624 170.085 75.8938C173.304 76.3377 176.023 74.1186 176.8 70.9563C178.964 61.636 189.452 34.6184 189.452 34.6184Z" fill="#FFC107"/>
<path d="M472.02 272.784C470.245 274.005 456.815 282.937 437.282 287.153C434.785 287.708 432.676 288.041 431.289 288.263C431.4 286.82 431.566 284.656 431.622 281.938C431.844 269.178 429.457 261.633 428.181 252.701C426.96 244.491 425.795 236.113 427.793 227.181C429.735 218.749 433.675 213.7 447.271 197.889C464.64 177.64 473.352 167.543 475.572 167.931C491.72 170.927 498.99 254.033 472.02 272.784Z" fill="#1CBA6E"/>
<path d="M447.881 336.917C445.162 337.305 439.169 338.193 434.23 334.587C431.677 332.756 430.456 330.426 429.957 329.483C425.906 321.66 428.07 307.68 436.339 299.525C443.386 292.59 453.652 291.758 474.129 290.093C478.402 289.761 482.12 289.594 484.895 289.539C486.282 289.483 487.614 290.204 488.335 291.425C488.335 291.425 488.335 291.425 488.335 291.48C494.994 303.131 466.971 334.198 447.881 336.917Z" fill="#1CBA6E"/>
<path d="M424.23 143.987H52.3409C46.818 143.987 42.3409 148.464 42.3409 153.987V394.04C42.3409 399.563 46.818 404.04 52.3409 404.04H424.23C429.753 404.04 434.23 399.563 434.23 394.04V153.987C434.23 148.464 429.753 143.987 424.23 143.987Z" fill="#E6EDF3"/>
<path d="M434.23 153.341H42.3409V131.205C42.3409 126.711 46.0034 123.05 50.4983 123.05H426.017C430.512 123.05 434.174 126.711 434.174 131.205V153.341H434.23Z" fill="#5278FF"/>
<path d="M63.8225 141.968C65.9066 141.968 67.596 140.279 67.596 138.195C67.596 136.112 65.9066 134.423 63.8225 134.423C61.7385 134.423 60.049 136.112 60.049 138.195C60.049 140.279 61.7385 141.968 63.8225 141.968Z" fill="#DFEBFD"/>
<path d="M81.029 141.968C83.113 141.968 84.8025 140.279 84.8025 138.195C84.8025 136.112 83.113 134.423 81.029 134.423C78.945 134.423 77.2555 136.112 77.2555 138.195C77.2555 140.279 78.945 141.968 81.029 141.968Z" fill="#DFEBFD"/>
<path d="M98.2355 141.968C100.32 141.968 102.009 140.279 102.009 138.195C102.009 136.112 100.32 134.423 98.2355 134.423C96.1514 134.423 94.462 136.112 94.462 138.195C94.462 140.279 96.1514 141.968 98.2355 141.968Z" fill="#DFEBFD"/>
<path d="M320.944 183.909H103.463C97.9942 183.909 93.5606 188.343 93.5606 193.812C93.5606 199.281 97.9942 203.715 103.463 203.715H320.944C326.414 203.715 330.847 199.281 330.847 193.812C330.847 188.343 326.414 183.909 320.944 183.909Z" fill="white"/>
<path d="M107.638 197.856C107.154 197.856 106.718 197.772 106.332 197.603C105.952 197.427 105.654 197.188 105.436 196.886C105.218 196.576 105.106 196.221 105.099 195.82H106.121C106.156 196.165 106.297 196.457 106.543 196.696C106.795 196.928 107.161 197.044 107.638 197.044C108.095 197.044 108.453 196.931 108.713 196.706C108.98 196.474 109.114 196.179 109.114 195.82C109.114 195.539 109.036 195.311 108.882 195.135C108.727 194.959 108.534 194.825 108.302 194.734C108.07 194.642 107.758 194.544 107.364 194.439C106.88 194.312 106.49 194.185 106.195 194.059C105.907 193.932 105.657 193.735 105.447 193.468C105.243 193.194 105.141 192.828 105.141 192.371C105.141 191.97 105.243 191.615 105.447 191.306C105.65 190.996 105.935 190.757 106.3 190.588C106.672 190.42 107.098 190.335 107.575 190.335C108.264 190.335 108.826 190.507 109.261 190.852C109.704 191.197 109.953 191.654 110.009 192.223H108.956C108.921 191.942 108.773 191.696 108.513 191.485C108.253 191.267 107.909 191.158 107.48 191.158C107.08 191.158 106.753 191.263 106.5 191.474C106.247 191.678 106.121 191.967 106.121 192.339C106.121 192.607 106.195 192.825 106.342 192.993C106.497 193.162 106.683 193.292 106.901 193.384C107.126 193.468 107.438 193.567 107.839 193.679C108.323 193.813 108.713 193.946 109.008 194.08C109.303 194.206 109.556 194.407 109.767 194.681C109.978 194.948 110.083 195.314 110.083 195.778C110.083 196.137 109.988 196.474 109.799 196.791C109.609 197.107 109.328 197.364 108.956 197.561C108.583 197.758 108.144 197.856 107.638 197.856Z" fill="#848A9C"/>
<path d="M116.447 194.671C116.447 194.853 116.436 195.047 116.415 195.251H111.8C111.835 195.82 112.028 196.267 112.379 196.59C112.738 196.907 113.17 197.065 113.676 197.065C114.09 197.065 114.434 196.97 114.708 196.78C114.989 196.583 115.186 196.323 115.298 196H116.331C116.177 196.555 115.867 197.009 115.404 197.36C114.94 197.705 114.364 197.877 113.676 197.877C113.128 197.877 112.636 197.754 112.2 197.508C111.772 197.262 111.435 196.914 111.189 196.464C110.943 196.007 110.82 195.479 110.82 194.882C110.82 194.284 110.939 193.76 111.178 193.31C111.417 192.86 111.751 192.515 112.179 192.276C112.615 192.03 113.114 191.907 113.676 191.907C114.224 191.907 114.708 192.026 115.13 192.266C115.551 192.505 115.874 192.835 116.099 193.257C116.331 193.672 116.447 194.143 116.447 194.671ZM115.456 194.47C115.456 194.104 115.376 193.792 115.214 193.531C115.053 193.264 114.831 193.064 114.55 192.93C114.276 192.789 113.971 192.719 113.633 192.719C113.149 192.719 112.734 192.874 112.39 193.183C112.053 193.493 111.86 193.922 111.81 194.47H115.456Z" fill="#848A9C"/>
<path d="M117.038 194.871C117.038 194.28 117.158 193.763 117.397 193.32C117.635 192.87 117.962 192.522 118.377 192.276C118.798 192.03 119.265 191.907 119.778 191.907C120.284 191.907 120.723 192.016 121.095 192.234C121.468 192.452 121.745 192.726 121.928 193.057V192.002H122.897V197.782H121.928V196.706C121.738 197.044 121.454 197.325 121.074 197.55C120.702 197.768 120.266 197.877 119.768 197.877C119.255 197.877 118.791 197.751 118.377 197.498C117.962 197.244 117.635 196.889 117.397 196.432C117.158 195.975 117.038 195.455 117.038 194.871ZM121.928 194.882C121.928 194.446 121.84 194.066 121.664 193.742C121.489 193.419 121.25 193.173 120.948 193.004C120.653 192.828 120.326 192.74 119.968 192.74C119.61 192.74 119.283 192.825 118.988 192.993C118.693 193.162 118.457 193.408 118.282 193.732C118.106 194.055 118.018 194.435 118.018 194.871C118.018 195.314 118.106 195.701 118.282 196.031C118.457 196.355 118.693 196.604 118.988 196.78C119.283 196.949 119.61 197.033 119.968 197.033C120.326 197.033 120.653 196.949 120.948 196.78C121.25 196.604 121.489 196.355 121.664 196.031C121.84 195.701 121.928 195.318 121.928 194.882Z" fill="#848A9C"/>
<path d="M125.161 192.941C125.329 192.61 125.568 192.353 125.877 192.171C126.193 191.988 126.576 191.896 127.026 191.896V192.888H126.773C125.698 192.888 125.161 193.472 125.161 194.639V197.782H124.202V192.002H125.161V192.941Z" fill="#848A9C"/>
<path d="M127.458 194.882C127.458 194.284 127.578 193.763 127.817 193.32C128.055 192.87 128.386 192.522 128.807 192.276C129.236 192.03 129.724 191.907 130.272 191.907C130.981 191.907 131.564 192.079 132.021 192.424C132.485 192.768 132.79 193.247 132.938 193.858H131.905C131.807 193.507 131.614 193.229 131.326 193.025C131.045 192.821 130.693 192.719 130.272 192.719C129.724 192.719 129.281 192.909 128.944 193.289C128.607 193.661 128.438 194.192 128.438 194.882C128.438 195.578 128.607 196.116 128.944 196.495C129.281 196.875 129.724 197.065 130.272 197.065C130.693 197.065 131.045 196.967 131.326 196.77C131.607 196.573 131.8 196.292 131.905 195.926H132.938C132.783 196.517 132.474 196.991 132.011 197.35C131.547 197.701 130.967 197.877 130.272 197.877C129.724 197.877 129.236 197.754 128.807 197.508C128.386 197.262 128.055 196.914 127.817 196.464C127.578 196.014 127.458 195.486 127.458 194.882Z" fill="#848A9C"/>
<path d="M136.767 191.896C137.203 191.896 137.596 191.991 137.948 192.181C138.299 192.364 138.573 192.642 138.77 193.014C138.973 193.387 139.075 193.841 139.075 194.375V197.782H138.127V194.512C138.127 193.936 137.983 193.496 137.695 193.194C137.407 192.884 137.013 192.73 136.515 192.73C136.009 192.73 135.605 192.888 135.303 193.204C135.008 193.521 134.86 193.981 134.86 194.586V197.782H133.901V189.977H134.86V192.825C135.05 192.529 135.31 192.301 135.64 192.139C135.977 191.977 136.353 191.896 136.767 191.896Z" fill="#848A9C"/>
<path d="M140.631 197.846C140.448 197.846 140.294 197.782 140.167 197.656C140.041 197.529 139.978 197.374 139.978 197.192C139.978 197.009 140.041 196.854 140.167 196.728C140.294 196.601 140.448 196.538 140.631 196.538C140.807 196.538 140.954 196.601 141.074 196.728C141.2 196.854 141.263 197.009 141.263 197.192C141.263 197.374 141.2 197.529 141.074 197.656C140.954 197.782 140.807 197.846 140.631 197.846Z" fill="#848A9C"/>
<path d="M142.527 197.846C142.345 197.846 142.19 197.782 142.064 197.656C141.937 197.529 141.874 197.374 141.874 197.192C141.874 197.009 141.937 196.854 142.064 196.728C142.19 196.601 142.345 196.538 142.527 196.538C142.703 196.538 142.851 196.601 142.97 196.728C143.096 196.854 143.16 197.009 143.16 197.192C143.16 197.374 143.096 197.529 142.97 197.656C142.851 197.782 142.703 197.846 142.527 197.846Z" fill="#848A9C"/>
<path d="M144.424 197.846C144.241 197.846 144.087 197.782 143.96 197.656C143.834 197.529 143.77 197.374 143.77 197.192C143.77 197.009 143.834 196.854 143.96 196.728C144.087 196.601 144.241 196.538 144.424 196.538C144.599 196.538 144.747 196.601 144.866 196.728C144.993 196.854 145.056 197.009 145.056 197.192C145.056 197.374 144.993 197.529 144.866 197.656C144.747 197.782 144.599 197.846 144.424 197.846Z" fill="#848A9C"/>
<path d="M146.32 197.846C146.137 197.846 145.983 197.782 145.856 197.656C145.73 197.529 145.667 197.374 145.667 197.192C145.667 197.009 145.73 196.854 145.856 196.728C145.983 196.601 146.137 196.538 146.32 196.538C146.496 196.538 146.643 196.601 146.763 196.728C146.889 196.854 146.952 197.009 146.952 197.192C146.952 197.374 146.889 197.529 146.763 197.656C146.643 197.782 146.496 197.846 146.32 197.846Z" fill="#848A9C"/>
<path d="M383.066 183.909H330.847V203.715H383.066V183.909Z" fill="#FFC107"/>
<path d="M211.872 237.556H98.9974C95.9948 237.556 93.5606 239.99 93.5606 242.993C93.5606 245.996 95.9948 248.43 98.9974 248.43H211.872C214.875 248.43 217.309 245.996 217.309 242.993C217.309 239.99 214.875 237.556 211.872 237.556Z" fill="#233862"/>
<path d="M379.432 258.194H97.1389C95.1627 258.194 93.5606 259.796 93.5606 261.772C93.5606 263.748 95.1627 265.35 97.1389 265.35H379.432C381.408 265.35 383.01 263.748 383.01 261.772C383.01 259.796 381.408 258.194 379.432 258.194Z" fill="white"/>
<path d="M278.213 273.561H97.1389C95.1627 273.561 93.5606 275.163 93.5606 277.139C93.5606 279.116 95.1627 280.718 97.1389 280.718H278.213C280.19 280.718 281.792 279.116 281.792 277.139C281.792 275.163 280.19 273.561 278.213 273.561Z" fill="white"/>
<path d="M379.432 273.561H296.579C294.603 273.561 293.001 275.163 293.001 277.139C293.001 279.116 294.603 280.718 296.579 280.718H379.432C381.408 280.718 383.01 279.116 383.01 277.139C383.01 275.163 381.408 273.561 379.432 273.561Z" fill="white"/>
<path d="M231.045 288.929H97.1389C95.1627 288.929 93.5606 290.531 93.5606 292.507C93.5606 294.483 95.1627 296.085 97.1389 296.085H231.045C233.021 296.085 234.623 294.483 234.623 292.507C234.623 290.531 233.021 288.929 231.045 288.929Z" fill="white"/>
<path d="M291.338 311.397H98.9975C95.9948 311.397 93.5606 313.831 93.5606 316.834C93.5606 319.837 95.9948 322.271 98.9975 322.271H291.338C294.34 322.271 296.775 319.837 296.775 316.834C296.775 313.831 294.34 311.397 291.338 311.397Z" fill="#233862"/>
<path d="M379.432 332.035H97.1389C95.1627 332.035 93.5606 333.637 93.5606 335.613C93.5606 337.589 95.1627 339.191 97.139 339.191H379.432C381.408 339.191 383.01 337.589 383.01 335.613C383.01 333.637 381.408 332.035 379.432 332.035Z" fill="white"/>
<path d="M132.989 347.402H97.1389C95.1627 347.402 93.5606 349.004 93.5606 350.98C93.5606 352.956 95.1627 354.558 97.1389 354.558H132.989C134.965 354.558 136.567 352.956 136.567 350.98C136.567 349.004 134.965 347.402 132.989 347.402Z" fill="white"/>
<path d="M379.487 347.402H151.411C149.434 347.402 147.832 349.004 147.832 350.98C147.832 352.956 149.434 354.558 151.411 354.558H379.487C381.464 354.558 383.066 352.956 383.066 350.98C383.066 349.004 381.464 347.402 379.487 347.402Z" fill="white"/>
<path d="M326.88 362.77H97.1389C95.1627 362.77 93.5606 364.372 93.5606 366.348C93.5606 368.324 95.1627 369.926 97.1389 369.926H326.88C328.857 369.926 330.459 368.324 330.459 366.348C330.459 364.372 328.857 362.77 326.88 362.77Z" fill="white"/>
<path d="M63.4836 432.283H90.564C98.222 432.283 105.159 427.956 108.599 421.132L118.088 393.171L118.699 389.676C120.586 378.581 113.871 367.762 103.05 364.545L65.7588 353.394L45.615 313.006C39.3998 300.634 21.3647 301.577 16.4258 314.559L8.98981 334.309C2.49717 351.618 4.55039 371.036 14.7056 386.458C22.419 398.22 34.6829 420.133 54.3273 430.119C57.2129 431.562 60.3205 432.283 63.4836 432.283Z" fill="#FFC107"/>
<path d="M51.4417 374.586L80.7418 373.31L125.802 372.034C127.855 371.978 129.908 372.644 131.518 373.92L188.73 419.689L184.79 422.408L124.137 386.403L69.3658 396.278C60.4315 397.554 52.3295 390.952 51.8856 381.965L51.4417 374.586Z" fill="#233862"/>
<path d="M178.797 430.286L174.413 430.951L169.752 430.23L169.197 426.347L173.914 427.845L178.52 428.233L178.797 430.286Z" fill="#5278FF"/>
<path d="M168.642 431.839L165.257 432.338L164.48 427.068L169.197 426.347L169.752 430.23L168.642 431.839Z" fill="#5278FF"/>
<path d="M199.108 419.024L195.39 421.52L190.895 422.852L188.73 419.634L193.614 418.913L197.887 417.249L199.108 419.024Z" fill="#5278FF"/>
<path d="M190.562 424.849L187.787 426.735L184.791 422.353L188.731 419.634L190.895 422.852L190.562 424.849Z" fill="#5278FF"/>
<path d="M114.037 360.717L118.865 362.27C120.142 362.659 121.14 363.602 121.751 364.767L123.527 368.539C123.638 368.761 123.36 369.038 123.138 368.872L118.921 366.154C118.477 365.876 117.922 365.876 117.478 366.098C116.479 366.708 115.203 366.708 114.148 366.209L112.428 365.377L114.037 360.717Z" fill="#FFD7CF"/>
<path d="M51.5527 374.475L86.1246 373.088L95.2254 321.66C96.7792 312.174 89.6206 303.464 80.0204 303.186L59.1552 302.465C48.7781 302.132 40.8426 311.619 43.0623 321.771L48.9445 349.122L51.5527 374.475Z" fill="#5278FF"/>
<path d="M112.428 365.432L114.037 360.717L93.6716 344.24L95.3919 318.054L82.0181 316.001L79.3545 346.792L112.428 365.432Z" fill="#5278FF"/>
<path d="M92.7837 360.717L97.6116 362.27C98.8879 362.659 99.8868 363.602 100.497 364.767L102.273 368.539C102.384 368.761 102.106 369.038 101.885 368.872L97.6671 366.154C97.2231 365.876 96.6682 365.876 96.2243 366.098C95.2254 366.708 93.9491 366.708 92.8947 366.209L91.1744 365.377L92.7837 360.717Z" fill="#FFD7CF"/>
<path d="M91.1189 365.433L92.7282 360.717L53.6614 345.128L55.7146 316.834L42.7293 317.222L38.5119 345.183C37.957 348.734 40.2322 352.173 43.6727 353.061L91.1189 365.433Z" fill="#5278FF"/>
<path d="M76.5798 303.075L76.9128 319.386L65.3148 302.687L71.53 302.909L76.5798 303.075Z" fill="white"/>
<path d="M69.0883 290.482L75.581 289.206L76.5798 303.076L73.2503 305.849L65.3148 302.687L69.0883 290.482Z" fill="#FFD7CF"/>
<path d="M84.2378 383.851L127.8 379.302L169.197 426.347L164.48 427.068L118.088 393.171L67.8675 396.444L84.2378 383.851Z" fill="#233862"/>
<path d="M76.7463 292.756L67.59 291.813C66.5357 291.702 65.7588 290.759 65.8698 289.705L67.4235 274.893L81.9626 276.39L80.5753 289.705C80.3533 291.591 78.6331 292.978 76.7463 292.756Z" fill="#FFD7CF"/>
<path d="M84.1823 272.562L71.0306 272.951C68.2559 273.062 66.7576 274.338 66.4802 276.612L65.9253 281.827C65.8143 283.103 66.7576 284.268 68.034 284.435L70.4202 284.657L70.9751 279.386C71.0861 278.11 72.1959 277.223 73.4722 277.334L81.6297 278.166L84.1823 272.562Z" fill="#163560"/>
<path d="M71.53 281.772C71.4746 282.548 70.7531 283.048 70.0317 282.992C69.2548 282.937 68.7554 282.215 68.8109 281.494C68.8664 280.718 69.5878 280.218 70.3092 280.274C71.0861 280.329 71.5855 280.995 71.53 281.772Z" fill="#FFD7CF"/>
<path d="M39.5662 357.499C39.5662 357.499 64.9819 375.363 93.0056 394.836C121.029 414.308 62.1517 407.485 62.1517 407.485L39.5662 357.499Z" fill="#FFC107"/>
<path d="M89.7316 373.532L128.576 371.979C129.853 371.923 130.852 370.869 130.796 369.593L130.741 368.65L89.6206 370.259C89.0102 370.259 88.5107 370.814 88.5107 371.479L88.5662 372.422C88.5662 373.088 89.0657 373.587 89.7316 373.532Z" fill="#415680"/>
<path d="M140.396 329.871L127.245 368.872L130.297 369.926L143.448 330.925C143.67 330.315 143.337 329.649 142.727 329.483L141.839 329.205C141.229 328.928 140.563 329.261 140.396 329.871Z" fill="#415680"/>
<path d="M302.601 298.637L299.438 295.918L315.198 278.665L321.58 249.927L330.459 254.255L324.854 284.102L302.601 298.637Z" fill="#FF4F67"/>
<path d="M364.587 303.463L358.205 365.21L359.037 427.012H354.265L346.773 365.21L345.275 318.553H341.779L333.955 365.21L333.233 427.012H328.405L322.523 365.21V303.463H364.587Z" fill="#FFD7CF"/>
<path d="M319.471 432.339H323.911L330.459 430.23L328.405 427.013L319.471 431.284V432.339Z" fill="#233862"/>
<path d="M329.793 432.339H333.233V427.013H328.405L330.459 430.23L329.793 432.339Z" fill="#233862"/>
<path d="M345.275 432.339H349.77L356.263 430.23L354.265 427.013L345.275 431.284V432.339Z" fill="#233862"/>
<path d="M355.652 432.339H359.037V427.013H354.265L356.263 430.23L355.652 432.339Z" fill="#233862"/>
<path d="M366.307 303.463H320.636L321.691 249.65C322.579 245.434 326.297 242.382 330.625 242.382H354.154C358.649 242.382 362.533 245.656 363.199 250.149L366.307 303.463Z" fill="#FF4F67"/>
<path d="M362.533 355.724H319.249L315.531 303.463H366.307L362.533 355.724Z" fill="#5278FF"/>
<path d="M350.714 230.732C350.714 232.896 348.882 234.616 346.663 234.616C344.387 234.616 342.612 232.896 342.612 230.732C342.612 228.568 344.443 226.849 346.663 226.849C348.882 226.849 350.714 228.568 350.714 230.732Z" fill="#163560"/>
<path d="M346.607 223.575H341.557V229.456H346.607V223.575Z" fill="#163560"/>
<path d="M345.275 226.737C345.275 227.348 344.776 227.847 344.165 227.847C343.555 227.847 343.055 227.348 343.055 226.737C343.055 226.127 343.555 225.628 344.165 225.628C344.72 225.572 345.275 226.127 345.275 226.737Z" fill="#FFD7CF"/>
<path d="M343.166 228.568H338.561L334.898 242.327V247.819C334.898 249.095 336.341 249.816 337.395 249.095L346.607 242.327L343.166 228.568Z" fill="#FFD7CF"/>
<path d="M336.674 233.783H341.724C343.111 233.783 344.221 232.674 344.221 231.287V219.858H332.123V229.29C332.179 231.786 334.177 233.783 336.674 233.783Z" fill="#FFD7CF"/>
<path d="M346.663 223.575H335.065C333.067 223.575 331.458 221.967 331.458 219.969C331.458 217.972 333.067 216.363 335.065 216.363H339.448C343.444 216.363 346.663 219.581 346.663 223.575Z" fill="#163560"/>
<path d="M248.829 277.833C270.987 277.833 288.95 259.875 288.95 237.722C288.95 215.57 270.987 197.612 248.829 197.612C226.671 197.612 208.708 215.57 208.708 237.722C208.708 259.875 226.671 277.833 248.829 277.833Z" fill="white"/>
<path d="M357.472 316.537C358.733 317.619 358.875 319.52 357.789 320.777L347.228 332.993C346.148 334.243 344.261 334.384 343.007 333.31L289.856 287.786C288.592 286.703 288.451 284.798 289.542 283.541L300.147 271.32C301.229 270.074 303.113 269.934 304.366 271.008L357.472 316.537Z" fill="#FFC107"/>
<path d="M281.921 261.18L276.843 267.058L292.298 280.401L297.376 274.523L281.921 261.18Z" fill="#233862"/>
<path d="M213.216 246.867H253.564C258.758 246.867 262.968 242.657 262.968 237.464C262.968 232.27 258.758 228.06 253.564 228.06H213.216C208.023 228.06 203.813 232.27 203.813 237.464C203.813 242.657 208.023 246.867 213.216 246.867Z" fill="#5278FF"/>
<path d="M285.898 269.733C268.085 290.371 236.843 292.645 216.199 274.837C195.556 257.029 193.281 225.795 211.094 205.157C228.907 184.519 260.149 182.245 280.793 200.053C301.436 217.861 303.711 249.095 285.898 269.733ZM220.528 213.312C207.209 228.735 208.93 252.091 224.357 265.406C239.784 278.721 263.146 277.001 276.464 261.578C289.783 246.155 288.062 222.799 272.635 209.484C257.208 196.17 233.846 197.889 220.528 213.312Z" fill="#FFC107"/>
<path d="M358.371 311.508L355.208 308.845L372.023 281.772C372.3 281.439 372.245 280.94 371.912 280.662L347.495 254.588L360.536 244.99L383.954 276.169C386.062 278.221 386.062 281.606 383.954 283.714L358.371 311.508Z" fill="#FF4F67"/>
<path d="M355.208 308.79L352.6 310.509C351.712 311.12 351.102 312.007 350.935 313.061L350.381 316.39C350.325 316.612 350.602 316.723 350.769 316.556L353.433 313.505C353.71 313.172 354.154 313.061 354.542 313.172C355.43 313.394 356.429 313.172 357.151 312.562L358.316 311.453L355.208 308.79Z" fill="#FFD7CF"/>
</svg>
