<svg width="183" height="39" viewBox="0 0 183 39" fill="none" xmlns="http://www.w3.org/2000/svg">
<g clip-path="url(#clip0_33_6)">
<path d="M14.6219 9.16748H10.4132C10.2113 9.16748 10.0514 9.32721 10.0514 9.52885V27.3319C10.0514 27.5336 10.2152 27.6934 10.4132 27.6934C10.6151 27.6934 10.7751 27.5298 10.7751 27.3319V9.89022H14.2563V23.7638C14.2563 23.9653 14.4201 24.1251 14.6181 24.1251H22.7308V26.9668H12.7785C12.5766 26.9668 12.4167 27.1304 12.4167 27.3319C12.4167 27.5336 12.5804 27.6934 12.7785 27.6934H23.0964C23.2945 27.6934 23.4583 27.5298 23.4583 27.3319V23.7638C23.4583 23.5621 23.2945 23.3986 23.0964 23.3986H14.9838V9.52885C14.9838 9.32721 14.82 9.16748 14.6219 9.16748Z" fill="#55FF00"/>
<path d="M14.6219 9.16748H10.4132C10.2113 9.16748 10.0514 9.32721 10.0514 9.52885V27.3319C10.0514 27.5336 10.2152 27.6934 10.4132 27.6934C10.6151 27.6934 10.7751 27.5298 10.7751 27.3319V9.89022H14.2563V23.7638C14.2563 23.9653 14.4201 24.1251 14.6181 24.1251H22.7308V26.9668H12.7785C12.5766 26.9668 12.4167 27.1304 12.4167 27.3319C12.4167 27.5336 12.5804 27.6934 12.7785 27.6934H23.0964C23.2945 27.6934 23.4583 27.5298 23.4583 27.3319V23.7638C23.4583 23.5621 23.2945 23.3986 23.0964 23.3986H14.9838V9.52885C14.9838 9.32721 14.82 9.16748 14.6219 9.16748Z" stroke="#55FF00" stroke-miterlimit="10"/>
<path d="M28.3373 11.233C28.1355 11.233 27.9755 11.3966 27.9755 11.5982V27.3358C27.9755 27.5373 28.1393 27.701 28.3373 27.701H41.767C41.9689 27.701 42.1289 27.5373 42.1289 27.3358V24.0338C42.1289 23.8322 41.9651 23.6724 41.767 23.6724H32.527V20.2677H40.8758C41.0738 20.2677 41.2376 20.1042 41.2376 19.9064V16.4598C41.2376 16.2582 41.0738 16.0985 40.8758 16.0985H32.3518V12.8003H41.767C41.9689 12.8003 42.1289 12.6368 42.1289 12.4351V9.53642C42.1289 9.33478 41.9651 9.17505 41.767 9.17505H28.3373C28.1355 9.17505 27.9755 9.3386 27.9755 9.53642C27.9755 9.73806 28.1393 9.89779 28.3373 9.89779H41.4014V12.0737H31.9861C31.7881 12.0737 31.6243 12.2373 31.6243 12.4351V16.4598C31.6243 16.6615 31.7881 16.825 31.9861 16.825H40.514V19.545H32.1651C31.9633 19.545 31.8033 19.7085 31.8033 19.9064V24.0376C31.8033 24.2392 31.967 24.4028 32.1651 24.4028H41.4052V26.9781H28.7029V11.5944C28.7029 11.3928 28.5392 11.233 28.3373 11.233Z" fill="#55FF00"/>
<path d="M28.3373 11.233C28.1355 11.233 27.9755 11.3966 27.9755 11.5982V27.3358C27.9755 27.5373 28.1393 27.701 28.3373 27.701H41.767C41.9689 27.701 42.1289 27.5373 42.1289 27.3358V24.0338C42.1289 23.8322 41.9651 23.6724 41.767 23.6724H32.527V20.2677H40.8758C41.0738 20.2677 41.2376 20.1042 41.2376 19.9064V16.4598C41.2376 16.2582 41.0738 16.0985 40.8758 16.0985H32.3518V12.8003H41.767C41.9689 12.8003 42.1289 12.6368 42.1289 12.4351V9.53642C42.1289 9.33478 41.9651 9.17505 41.767 9.17505H28.3373C28.1355 9.17505 27.9755 9.3386 27.9755 9.53642C27.9755 9.73806 28.1393 9.89779 28.3373 9.89779H41.4014V12.0737H31.9861C31.7881 12.0737 31.6243 12.2373 31.6243 12.4351V16.4598C31.6243 16.6615 31.7881 16.825 31.9861 16.825H40.514V19.545H32.1651C31.9633 19.545 31.8033 19.7085 31.8033 19.9064V24.0376C31.8033 24.2392 31.967 24.4028 32.1651 24.4028H41.4052V26.9781H28.7029V11.5944C28.7029 11.3928 28.5392 11.233 28.3373 11.233Z" stroke="#55FF00" stroke-miterlimit="10"/>
<path d="M52.7097 23.9463L52.7059 23.9501L52.7097 23.9463ZM58.8266 23.9539V23.9501V23.9539ZM57.8744 9.70762C57.8744 9.71143 57.8744 9.71143 57.8782 9.71517C57.8744 9.71517 57.8744 9.71143 57.8744 9.70762ZM53.5972 9.71517V9.71143V9.71517ZM52.0242 23.699L50.8282 26.9668H48.9657C48.7638 26.9668 48.6038 27.1303 48.6038 27.3281C48.6038 27.5297 48.7676 27.6933 48.9657 27.6933H51.0796C51.2319 27.6933 51.369 27.5982 51.4186 27.4537L52.6374 24.1213H58.8875L60.0835 27.3928C60.1483 27.5716 60.3235 27.6895 60.5101 27.6895H64.1665C64.3151 27.6895 64.4522 27.6172 64.5359 27.4993C64.6235 27.3814 64.6464 27.2254 64.5969 27.0847L58.5562 9.47171C58.4952 9.28534 58.3239 9.15979 58.122 9.15979H53.3344C53.1401 9.15979 52.9649 9.28152 52.904 9.46416L46.5852 27.2064C46.5166 27.3966 46.6157 27.602 46.8061 27.6705C46.8481 27.6857 46.8861 27.6933 46.928 27.6933C47.0765 27.6933 47.2174 27.602 47.2708 27.4499L53.5286 9.88635H57.9316L63.7895 26.9668H60.7005L59.5084 23.7028C59.4436 23.5203 59.2722 23.3985 59.078 23.3985H52.4507C52.2603 23.4023 52.0889 23.5241 52.0242 23.699Z" fill="#55FF00"/>
<path d="M52.7097 23.9463L52.7059 23.9501L52.7097 23.9463ZM58.8266 23.9539V23.9501V23.9539ZM57.8744 9.70762C57.8744 9.71143 57.8744 9.71143 57.8782 9.71517C57.8744 9.71517 57.8744 9.71143 57.8744 9.70762ZM53.5972 9.71517V9.71143V9.71517ZM52.0242 23.699L50.8282 26.9668H48.9657C48.7638 26.9668 48.6038 27.1303 48.6038 27.3281C48.6038 27.5297 48.7676 27.6933 48.9657 27.6933H51.0796C51.2319 27.6933 51.369 27.5982 51.4186 27.4537L52.6374 24.1213H58.8875L60.0835 27.3928C60.1483 27.5716 60.3235 27.6895 60.5101 27.6895H64.1665C64.3151 27.6895 64.4522 27.6172 64.5359 27.4993C64.6235 27.3814 64.6464 27.2254 64.5969 27.0847L58.5562 9.47171C58.4952 9.28534 58.3239 9.15979 58.122 9.15979H53.3344C53.1401 9.15979 52.9649 9.28152 52.904 9.46416L46.5852 27.2064C46.5166 27.3966 46.6157 27.602 46.8061 27.6705C46.8481 27.6857 46.8861 27.6933 46.928 27.6933C47.0765 27.6933 47.2174 27.602 47.2708 27.4499L53.5286 9.88635H57.9316L63.7895 26.9668H60.7005L59.5084 23.7028C59.4436 23.5203 59.2722 23.3985 59.078 23.3985H52.4507C52.2603 23.4023 52.0889 23.5241 52.0242 23.699Z" stroke="#55FF00" stroke-miterlimit="10"/>
<path d="M58.1258 20.6443C58.1791 20.7927 58.3201 20.8802 58.4648 20.8802C58.5067 20.8802 58.5486 20.8726 58.5905 20.8574C58.7809 20.7889 58.8761 20.5797 58.8038 20.3933L56.0501 12.9487C55.9815 12.766 55.7873 12.633 55.612 12.652C55.4178 12.6558 55.2464 12.7813 55.1893 12.9677L52.7936 20.2867C52.7478 20.4275 52.7707 20.5797 52.8583 20.6976C52.9421 20.8155 53.083 20.8878 53.2278 20.8878H56.3091C56.5071 20.8878 56.6709 20.7242 56.6709 20.5264C56.6709 20.3248 56.5071 20.165 56.3091 20.165H53.601L55.6387 13.9339L58.1258 20.6443Z" fill="#55FF00"/>
<path d="M58.1258 20.6443C58.1791 20.7927 58.3201 20.8802 58.4648 20.8802C58.5067 20.8802 58.5486 20.8726 58.5905 20.8574C58.7809 20.7889 58.8761 20.5797 58.8038 20.3933L56.0501 12.9487C55.9815 12.766 55.7873 12.633 55.612 12.652C55.4178 12.6558 55.2464 12.7813 55.1893 12.9677L52.7936 20.2867C52.7478 20.4275 52.7707 20.5797 52.8583 20.6976C52.9421 20.8155 53.083 20.8878 53.2278 20.8878H56.3091C56.5071 20.8878 56.6709 20.7242 56.6709 20.5264C56.6709 20.3248 56.5071 20.165 56.3091 20.165H53.601L55.6387 13.9339L58.1258 20.6443Z" stroke="#55FF00" stroke-miterlimit="10"/>
<path d="M69.4264 9.16751C69.2245 9.16751 69.0645 9.32725 69.0645 9.52889V27.1837C69.0645 27.4652 69.293 27.6934 69.5749 27.6934H75.8175C81.6144 27.6934 85.6592 23.7828 85.6592 18.1794C85.6592 12.5912 80.1404 9.1637 76.1831 9.1637H71.6621C71.4602 9.1637 71.3003 9.32343 71.3003 9.52507C71.3003 9.72671 71.464 9.88644 71.6621 9.88644H76.1831C79.8358 9.88644 84.9315 13.04 84.9315 18.1794C84.9315 23.4366 81.2678 26.9669 75.8175 26.9669H69.7882V9.52889C69.792 9.32725 69.6282 9.16751 69.4264 9.16751Z" fill="#55FF00"/>
<path d="M76.7429 23.4023H75.5507C75.3489 23.4023 75.1851 23.566 75.1851 23.7638C75.1851 23.9653 75.3489 24.1252 75.5507 24.1252H76.7429C78.9024 24.1252 81.9152 22.0139 81.9152 18.5788C81.9152 15.1361 79.7099 12.7319 76.5487 12.7319H73.3226C73.0408 12.7319 72.8123 12.9601 72.8123 13.2417V23.6915C72.8123 23.8931 72.976 24.0567 73.1741 24.0567C73.3759 24.0567 73.5397 23.8931 73.5397 23.6915V13.4585H76.5525C79.3253 13.4585 81.1915 15.5165 81.1915 18.5788C81.1877 21.7895 78.3388 23.4023 76.7429 23.4023Z" fill="#55FF00"/>
<path d="M69.4264 9.16751C69.2245 9.16751 69.0645 9.32725 69.0645 9.52889V27.1837C69.0645 27.4652 69.293 27.6934 69.5749 27.6934H75.8175C81.6144 27.6934 85.6592 23.7828 85.6592 18.1794C85.6592 12.5912 80.1404 9.1637 76.1831 9.1637H71.6621C71.4602 9.1637 71.3003 9.32343 71.3003 9.52507C71.3003 9.72671 71.464 9.88644 71.6621 9.88644H76.1831C79.8358 9.88644 84.9315 13.04 84.9315 18.1794C84.9315 23.4366 81.2678 26.9669 75.8175 26.9669H69.7882V9.52889C69.792 9.32725 69.6282 9.16751 69.4264 9.16751Z" stroke="#55FF00" stroke-miterlimit="10"/>
<path d="M76.7429 23.4023H75.5507C75.3489 23.4023 75.1851 23.566 75.1851 23.7638C75.1851 23.9653 75.3489 24.1252 75.5507 24.1252H76.7429C78.9024 24.1252 81.9152 22.0139 81.9152 18.5788C81.9152 15.1361 79.7099 12.7319 76.5487 12.7319H73.3226C73.0408 12.7319 72.8123 12.9601 72.8123 13.2417V23.6915C72.8123 23.8931 72.976 24.0567 73.1741 24.0567C73.3759 24.0567 73.5397 23.8931 73.5397 23.6915V13.4585H76.5525C79.3253 13.4585 81.1915 15.5165 81.1915 18.5788C81.1877 21.7895 78.3388 23.4023 76.7429 23.4023Z" stroke="#55FF00" stroke-miterlimit="10"/>
<path d="M90.1461 27.3321C90.1461 27.5336 90.3096 27.6934 90.5079 27.6934H94.5068C94.7093 27.6934 94.8728 27.5298 94.8728 27.3321V21.6107H97.6686L101.214 27.5184C101.279 27.6287 101.397 27.6934 101.527 27.6934H105.758C105.888 27.6934 106.006 27.625 106.071 27.5108C106.135 27.4005 106.135 27.2597 106.071 27.1494L102.403 20.7776C103.264 20.2069 105.449 18.4723 105.449 15.5394C105.449 11.488 103.198 9.1637 99.2715 9.1637H90.7248C90.5231 9.1637 90.363 9.32343 90.363 9.52507V25.1599C90.363 25.3615 90.5265 25.5213 90.7248 25.5213C90.9264 25.5213 91.0865 25.3577 91.0865 25.1599V9.89026H99.2758C104.018 9.89026 104.726 13.4319 104.726 15.5394C104.726 18.5712 102.041 20.1651 101.736 20.3363C101.652 20.3819 101.591 20.4618 101.565 20.5569C101.538 20.652 101.553 20.7509 101.599 20.8347L105.13 26.9669H101.732L98.1829 21.0591C98.1176 20.9488 97.9999 20.8841 97.8702 20.8841H94.5068C94.3051 20.8841 94.145 21.0477 94.145 21.2455V26.9669H90.5079C90.3096 26.9706 90.1461 27.1342 90.1461 27.3321Z" fill="#55FF00"/>
<path d="M94.2712 14.5464C94.0687 14.5464 93.9052 14.7063 93.9052 14.9079V18.0462C93.9052 18.2479 94.0687 18.4076 94.2712 18.4076H97.8778C100.281 18.4076 101.355 16.8328 101.355 15.2731C101.355 13.4623 100.159 12.3363 98.232 12.3363H94.2712C94.0687 12.3363 93.9052 12.4999 93.9052 12.7015C93.9052 12.9031 94.0687 13.0629 94.2712 13.0629H98.232C99.7553 13.0629 100.628 13.8693 100.628 15.2731C100.628 16.4371 99.9044 17.681 97.8745 17.681H94.633V14.9079C94.633 14.7063 94.4686 14.5464 94.2712 14.5464Z" fill="#55FF00"/>
<path d="M90.1461 27.3321C90.1461 27.5336 90.3096 27.6934 90.5079 27.6934H94.5068C94.7093 27.6934 94.8728 27.5298 94.8728 27.3321V21.6107H97.6686L101.214 27.5184C101.279 27.6287 101.397 27.6934 101.527 27.6934H105.758C105.888 27.6934 106.006 27.625 106.071 27.5108C106.135 27.4005 106.135 27.2598 106.071 27.1494L102.403 20.7776C103.264 20.2069 105.449 18.4723 105.449 15.5394C105.449 11.488 103.198 9.1637 99.2715 9.1637H90.7248C90.5231 9.1637 90.363 9.32343 90.363 9.52507V25.1599C90.363 25.3615 90.5265 25.5213 90.7248 25.5213C90.9264 25.5213 91.0865 25.3577 91.0865 25.1599V9.89026H99.2758C104.018 9.89026 104.726 13.4319 104.726 15.5394C104.726 18.5712 102.041 20.1651 101.736 20.3363C101.652 20.3819 101.591 20.4618 101.565 20.5569C101.538 20.652 101.553 20.7509 101.599 20.8347L105.13 26.9669H101.732L98.1829 21.0591C98.1176 20.9488 97.9999 20.8841 97.8702 20.8841H94.5068C94.3051 20.8841 94.145 21.0477 94.145 21.2455V26.9669H90.5079C90.3096 26.9706 90.1461 27.1342 90.1461 27.3321Z" stroke="#55FF00" stroke-miterlimit="10"/>
<path d="M94.2712 14.5464C94.0687 14.5464 93.9052 14.7063 93.9052 14.9079V18.0462C93.9052 18.2479 94.0687 18.4076 94.2712 18.4076H97.8778C100.281 18.4076 101.355 16.8328 101.355 15.2731C101.355 13.4623 100.159 12.3363 98.232 12.3363H94.2712C94.0687 12.3363 93.9052 12.4999 93.9052 12.7015C93.9052 12.9031 94.0687 13.0629 94.2712 13.0629H98.232C99.7553 13.0629 100.628 13.8693 100.628 15.2731C100.628 16.4371 99.9044 17.681 97.8745 17.681H94.633V14.9079C94.633 14.7063 94.4686 14.5464 94.2712 14.5464Z" stroke="#55FF00" stroke-miterlimit="10"/>
<path d="M144.299 13.3405C146.017 13.3405 147.617 14.1926 148.58 15.6154C148.66 15.7333 148.805 15.7903 148.942 15.7675L152.907 15.0827C153.018 15.0637 153.113 14.9953 153.166 14.8964C153.219 14.7975 153.224 14.6795 153.178 14.5768C151.623 11.0695 148.138 8.80225 144.299 8.80225C140.94 8.80225 137.866 10.4988 136.076 13.3443C134.236 16.2658 134.103 19.8569 135.706 23.1893C136.526 24.8897 137.919 26.2744 139.63 27.0885C141.153 27.8151 142.745 28.1803 144.311 28.1803C145.469 28.1803 146.608 27.9786 147.693 27.5754C150.146 26.6624 152.157 24.7604 153.201 22.36C153.246 22.2572 153.239 22.1393 153.189 22.0404C153.135 21.9415 153.041 21.8731 152.93 21.8541L150.861 21.4965C150.667 21.4622 150.477 21.5954 150.443 21.7931C150.408 21.991 150.542 22.1774 150.739 22.2116L152.343 22.4893C151.334 24.5093 149.57 26.1032 147.445 26.8944C145.083 27.777 142.426 27.6134 139.953 26.4341C138.392 25.6886 137.12 24.4256 136.373 22.8735C134.876 19.7694 134.998 16.437 136.701 13.7285C138.357 11.0961 141.199 9.52499 144.306 9.52499C147.7 9.52499 150.797 11.4423 152.32 14.4437L149.053 15.0067C147.944 13.5003 146.188 12.6063 144.306 12.6063C142.25 12.6063 140.376 13.6486 139.294 15.3986C138.179 17.1979 138.125 19.3966 139.142 21.4318C139.607 22.36 140.353 23.1246 141.252 23.5925C144.668 25.3652 147.761 23.893 149.193 21.7741C149.304 21.6068 149.262 21.3823 149.094 21.272C148.931 21.1617 148.702 21.2036 148.592 21.371C147.334 23.2312 144.604 24.5169 141.591 22.9496C140.829 22.554 140.19 21.8997 139.798 21.1085C138.894 19.3053 138.937 17.3614 139.915 15.7789C140.852 14.2573 142.498 13.3405 144.299 13.3405Z" fill="#55FF00"/>
<path d="M144.299 13.3405C146.017 13.3405 147.617 14.1926 148.58 15.6154C148.66 15.7333 148.805 15.7903 148.942 15.7675L152.907 15.0827C153.018 15.0637 153.113 14.9953 153.166 14.8964C153.219 14.7975 153.224 14.6795 153.178 14.5768C151.623 11.0695 148.138 8.80225 144.299 8.80225C140.94 8.80225 137.866 10.4988 136.076 13.3443C134.236 16.2658 134.103 19.8569 135.706 23.1893C136.526 24.8897 137.919 26.2744 139.63 27.0885C141.153 27.8151 142.745 28.1803 144.311 28.1803C145.469 28.1803 146.608 27.9786 147.693 27.5754C150.146 26.6624 152.157 24.7604 153.201 22.36C153.246 22.2572 153.239 22.1393 153.189 22.0404C153.135 21.9415 153.041 21.8731 152.93 21.8541L150.861 21.4965C150.667 21.4622 150.477 21.5954 150.443 21.7931C150.408 21.991 150.542 22.1774 150.739 22.2116L152.343 22.4893C151.334 24.5093 149.57 26.1032 147.445 26.8944C145.083 27.777 142.426 27.6134 139.953 26.4341C138.392 25.6886 137.12 24.4256 136.373 22.8735C134.876 19.7694 134.998 16.437 136.701 13.7285C138.357 11.0961 141.199 9.52499 144.306 9.52499C147.7 9.52499 150.797 11.4423 152.32 14.4437L149.053 15.0067C147.944 13.5003 146.188 12.6063 144.306 12.6063C142.25 12.6063 140.376 13.6486 139.294 15.3986C138.179 17.1979 138.125 19.3966 139.142 21.4318C139.607 22.36 140.353 23.1246 141.252 23.5925C144.668 25.3652 147.761 23.893 149.193 21.7741C149.304 21.6068 149.262 21.3823 149.094 21.272C148.931 21.1617 148.702 21.2036 148.592 21.371C147.334 23.2312 144.604 24.5169 141.591 22.9496C140.829 22.554 140.19 21.8997 139.798 21.1085C138.894 19.3053 138.937 17.3614 139.915 15.7789C140.852 14.2573 142.498 13.3405 144.299 13.3405Z" stroke="#55FF00" stroke-miterlimit="10"/>
<path d="M161.74 8.80611H157.737C157.538 8.80611 157.375 8.96584 157.375 9.16748C157.375 9.36912 157.538 9.52885 157.737 9.52885H161.378V16.3077C161.378 16.5094 161.542 16.6691 161.74 16.6691H164.676C164.809 16.6691 164.935 16.5931 164.996 16.4751L168.74 9.35767H172.328L167.327 18.2783C167.262 18.3886 167.266 18.5293 167.331 18.6397L172.312 27.1114H168.942L164.619 20.0357C164.554 19.9292 164.436 19.8608 164.31 19.8608H161.736C161.534 19.8608 161.374 20.0243 161.374 20.226V27.1114H158.274V11.5944C158.274 11.3929 158.109 11.2331 157.912 11.2331C157.714 11.2331 157.549 11.3966 157.549 11.5944V27.4727C157.549 27.6744 157.714 27.8341 157.912 27.8341H161.74C161.941 27.8341 162.105 27.6706 162.105 27.4727V20.5873H164.109L168.431 27.6629C168.496 27.7695 168.614 27.8379 168.74 27.8379H172.949C173.078 27.8379 173.2 27.7695 173.265 27.6553C173.33 27.5412 173.33 27.4043 173.261 27.2901L168.062 18.4494L173.265 9.17129C173.33 9.05712 173.326 8.9202 173.261 8.80984C173.196 8.69956 173.074 8.6311 172.949 8.6311H168.519C168.385 8.6311 168.26 8.70719 168.199 8.82511L164.455 15.9425H162.102V9.16748C162.105 8.96584 161.941 8.80611 161.74 8.80611Z" fill="#55FF00"/>
<path d="M161.74 8.80611H157.737C157.538 8.80611 157.375 8.96584 157.375 9.16748C157.375 9.36912 157.538 9.52885 157.737 9.52885H161.378V16.3077C161.378 16.5094 161.542 16.6691 161.74 16.6691H164.676C164.809 16.6691 164.935 16.5931 164.996 16.4751L168.74 9.35767H172.328L167.327 18.2783C167.262 18.3886 167.266 18.5293 167.331 18.6397L172.312 27.1114H168.942L164.619 20.0357C164.554 19.9292 164.436 19.8608 164.31 19.8608H161.736C161.534 19.8608 161.374 20.0243 161.374 20.226V27.1114H158.274V11.5944C158.274 11.3929 158.109 11.2331 157.912 11.2331C157.714 11.2331 157.549 11.3966 157.549 11.5944V27.4727C157.549 27.6743 157.714 27.8341 157.912 27.8341H161.74C161.941 27.8341 162.105 27.6706 162.105 27.4727V20.5873H164.109L168.431 27.6629C168.496 27.7695 168.614 27.8379 168.74 27.8379H172.949C173.078 27.8379 173.2 27.7695 173.265 27.6553C173.33 27.5412 173.33 27.4043 173.261 27.2901L168.062 18.4494L173.265 9.17129C173.33 9.05712 173.326 8.9202 173.261 8.80984C173.196 8.69956 173.074 8.6311 172.949 8.6311H168.519C168.385 8.6311 168.26 8.70719 168.199 8.82511L164.455 15.9425H162.102V9.16748C162.105 8.96584 161.941 8.80611 161.74 8.80611Z" stroke="#55FF00" stroke-miterlimit="10"/>
<path d="M120.316 23.6535C117.855 23.6535 115.725 21.9074 115.254 19.4994C115.212 19.3016 115.017 19.1761 114.827 19.2141C114.633 19.2522 114.503 19.4424 114.541 19.6402C115.082 22.3867 117.512 24.3763 120.319 24.3763C123.568 24.3763 126.207 21.7362 126.207 18.4952C126.207 15.2503 123.564 12.6102 120.319 12.6102C117.512 12.6102 115.086 14.6035 114.541 17.3463C114.503 17.5441 114.633 17.7343 114.827 17.7723C115.025 17.8104 115.215 17.6849 115.254 17.4871C115.73 15.0791 117.859 13.333 120.316 13.333C123.161 13.333 125.476 15.6458 125.476 18.4913C125.476 21.3406 123.161 23.6535 120.316 23.6535Z" fill="#55FF00"/>
<path d="M129.228 17.4641C129.251 17.662 129.43 17.8065 129.632 17.7837C129.833 17.7609 129.974 17.5821 129.952 17.3804C129.392 12.4922 125.247 8.80225 120.316 8.80225C114.964 8.80225 110.611 13.1503 110.611 18.4951C110.611 23.8398 114.964 28.1878 120.316 28.1878C125.247 28.1878 129.388 24.5017 129.952 19.6096C129.974 19.4118 129.833 19.2293 129.632 19.2064C129.43 19.1874 129.255 19.3244 129.228 19.5259C128.71 24.049 124.875 27.4574 120.316 27.4574C115.368 27.4574 111.339 23.4327 111.339 18.4913C111.339 13.5459 115.368 9.52499 120.316 9.52499C124.875 9.53263 128.706 12.9411 129.228 17.4641Z" fill="#55FF00"/>
<path d="M120.316 23.6535C117.855 23.6535 115.725 21.9074 115.254 19.4994C115.212 19.3016 115.017 19.1761 114.827 19.2141C114.633 19.2522 114.503 19.4424 114.541 19.6402C115.082 22.3867 117.512 24.3763 120.319 24.3763C123.568 24.3763 126.207 21.7362 126.207 18.4952C126.207 15.2503 123.564 12.6102 120.319 12.6102C117.512 12.6102 115.086 14.6035 114.541 17.3463C114.503 17.5441 114.633 17.7343 114.827 17.7723C115.025 17.8104 115.215 17.6849 115.254 17.4871C115.73 15.0791 117.859 13.333 120.316 13.333C123.161 13.333 125.476 15.6458 125.476 18.4913C125.476 21.3406 123.161 23.6535 120.316 23.6535Z" stroke="#55FF00" stroke-miterlimit="10"/>
<path d="M129.228 17.4641C129.251 17.662 129.43 17.8065 129.632 17.7837C129.833 17.7609 129.974 17.5821 129.952 17.3804C129.392 12.4922 125.247 8.80225 120.316 8.80225C114.964 8.80225 110.611 13.1503 110.611 18.4951C110.611 23.8398 114.964 28.1878 120.316 28.1878C125.247 28.1878 129.388 24.5017 129.952 19.6096C129.974 19.4118 129.833 19.2293 129.632 19.2064C129.43 19.1874 129.255 19.3244 129.228 19.5259C128.71 24.049 124.875 27.4574 120.316 27.4574C115.368 27.4574 111.339 23.4327 111.339 18.4913C111.339 13.5459 115.368 9.52499 120.316 9.52499C124.875 9.53263 128.706 12.9411 129.228 17.4641Z" stroke="#55FF00" stroke-miterlimit="10"/>
<path d="M42.605 37.3443L42.3193 38.2079H41.2415L42.8602 33.6848H43.9381L45.5568 38.2079H44.4789L44.1933 37.3443H42.605ZM43.9 36.4466L43.3972 34.9402L42.8945 36.4466H43.9Z" fill="#55FF00"/>
<path d="M46.1624 33.681H49.2894V34.6852H47.206V35.6173H48.8972V36.6254H47.206V38.204H46.1624V33.681Z" fill="#55FF00"/>
<path d="M50.1197 33.681H53.2467V34.6852H51.1633V35.6173H52.8544V36.6254H51.1633V38.204H50.1197V33.681Z" fill="#55FF00"/>
<path d="M55.1168 38.204H54.0732V33.681H55.1168V38.204Z" fill="#55FF00"/>
<path d="M56.1946 33.681H57.2382V37.1997H59.2874V38.204H56.1946V33.681Z" fill="#55FF00"/>
<path d="M61.047 38.204H60.0034V33.681H61.047V38.204Z" fill="#55FF00"/>
<path d="M63.0237 37.3443L62.7381 38.2079H61.6602L63.2789 33.6848H64.3568L65.9756 38.2079H64.8977L64.612 37.3443H63.0237ZM64.3187 36.4466L63.816 34.9402L63.3132 36.4466H64.3187Z" fill="#55FF00"/>
<path d="M68.2724 38.204H67.2288V34.6852H65.9338V33.681H69.5635V34.6852H68.2685V38.204H68.2724Z" fill="#55FF00"/>
<path d="M70.2871 33.681H73.5246V34.6852H71.3307V35.4042H73.3456V36.4085H71.3307V37.1997H73.597V38.204H70.2909V33.681H70.2871Z" fill="#55FF00"/>
<path d="M77.478 38.2041L77.0095 37.7362C76.9104 37.8351 76.7924 37.9264 76.6629 38.0101C76.5524 38.0785 76.4153 38.1395 76.2516 38.1927C76.0878 38.246 75.8973 38.2764 75.6802 38.2764C75.4631 38.2764 75.2727 38.246 75.1013 38.1851C74.9299 38.1243 74.789 38.0444 74.6747 37.9416C74.5604 37.8389 74.4728 37.7172 74.4081 37.5803C74.3472 37.4433 74.3129 37.2912 74.3129 37.1275C74.3129 36.9222 74.3548 36.7395 74.4386 36.5836C74.5224 36.4238 74.6176 36.2944 74.7242 36.188C74.8499 36.0624 74.987 35.9597 75.1394 35.8722L74.9223 35.6211C74.8919 35.5869 74.8575 35.545 74.8156 35.4918C74.7738 35.4386 74.7318 35.3777 74.6976 35.3092C74.6633 35.2408 74.629 35.1609 74.6024 35.0696C74.5757 34.9782 74.5642 34.8756 74.5642 34.7614C74.5642 34.6168 74.5947 34.4799 74.6595 34.3467C74.7242 34.2136 74.8118 34.0957 74.9223 33.993C75.0328 33.8903 75.166 33.8066 75.3184 33.7457C75.4708 33.6848 75.6383 33.6506 75.8212 33.6506C76.0002 33.6506 76.164 33.6811 76.3201 33.7457C76.4762 33.8066 76.6096 33.8903 76.72 33.993C76.8305 34.0957 76.9181 34.2136 76.9828 34.3467C77.0476 34.4799 77.078 34.6207 77.078 34.7614C77.078 34.8756 77.0628 34.9782 77.0362 35.0696C77.0057 35.1609 76.9714 35.2408 76.9333 35.3054C76.8914 35.3739 76.8495 35.4271 76.8038 35.4728C76.7581 35.5184 76.72 35.5565 76.6858 35.5831L76.3277 35.8684L76.9028 36.4428L77.2265 35.975H78.3426L77.5504 37.0895L78.6663 38.2041H77.478ZM75.7869 37.3444C75.8668 37.3444 75.943 37.3292 76.0078 37.3025C76.0725 37.2721 76.1297 37.2417 76.1754 37.2036C76.2287 37.1618 76.2782 37.1123 76.3277 37.0591L75.6802 36.4124C75.6193 36.4619 75.5622 36.5113 75.5164 36.5645C75.4784 36.614 75.4403 36.6672 75.4098 36.732C75.3755 36.7966 75.3603 36.8689 75.3603 36.9526C75.3603 37.0629 75.4022 37.158 75.4822 37.2341C75.5584 37.3025 75.6612 37.3444 75.7869 37.3444ZM75.7869 35.3663C75.9126 35.2749 76.0078 35.1913 76.0764 35.1114C76.1449 35.0315 76.1792 34.9364 76.1792 34.8261C76.1792 34.7006 76.1487 34.6055 76.084 34.537C76.0192 34.4685 75.9317 34.4343 75.8212 34.4343C75.7107 34.4343 75.6231 34.4685 75.5584 34.537C75.4936 34.6055 75.4631 34.7044 75.4631 34.8261C75.4631 34.9364 75.4936 35.0315 75.5584 35.1114C75.6193 35.1913 75.6954 35.2788 75.7869 35.3663Z" fill="#55FF00"/>
<path d="M78.7693 34.9363C78.7693 34.7651 78.8074 34.6016 78.8798 34.4456C78.9559 34.2897 79.0626 34.1527 79.1997 34.0348C79.3407 33.9169 79.5082 33.8218 79.7062 33.7495C79.9043 33.6772 80.1329 33.6429 80.3843 33.6429C80.628 33.6429 80.8489 33.6772 81.0432 33.7495C81.2374 33.8218 81.4012 33.9207 81.5383 34.05C81.6754 34.1793 81.7783 34.3315 81.8545 34.5065C81.9306 34.6815 81.9649 34.8717 81.9649 35.0771L80.9594 35.1494C80.9594 34.9668 80.9099 34.8261 80.807 34.7271C80.708 34.6282 80.5633 34.575 80.3843 34.575C80.2205 34.575 80.091 34.6206 79.9919 34.7081C79.8929 34.7956 79.8434 34.8945 79.8434 35.0048C79.8434 35.1151 79.8967 35.1989 80.0072 35.2559C80.1177 35.313 80.2547 35.3662 80.4185 35.4157C80.5823 35.4652 80.7613 35.5183 80.9556 35.5754C81.146 35.6325 81.325 35.7162 81.4926 35.8189C81.6564 35.9254 81.7973 36.0624 81.9039 36.2374C82.0106 36.4124 82.0677 36.633 82.0677 36.9031C82.0677 37.0856 82.0297 37.2568 81.9572 37.4166C81.8849 37.5764 81.7745 37.7171 81.6297 37.835C81.485 37.9568 81.3098 38.0519 81.0964 38.1242C80.887 38.1965 80.6471 38.2307 80.3766 38.2307C80.1176 38.2307 79.8853 38.1965 79.6796 38.1242C79.4739 38.0519 79.2987 37.9492 79.1578 37.8198C79.0169 37.6867 78.9103 37.5346 78.834 37.3519C78.7579 37.1732 78.7236 36.9754 78.7236 36.7585L79.7291 36.6863C79.7291 37.0933 79.9463 37.2949 80.3766 37.2949C80.5785 37.2949 80.7309 37.2493 80.8336 37.1541C80.9365 37.059 80.9899 36.9525 80.9899 36.827C80.9899 36.7128 80.9365 36.6254 80.8261 36.5607C80.7156 36.4998 80.5785 36.4428 80.4109 36.3895C80.2433 36.3363 80.0681 36.283 79.8739 36.2259C79.6834 36.1689 79.5044 36.089 79.3369 35.9863C79.1731 35.8835 79.0321 35.7466 78.9217 35.5793C78.8112 35.4119 78.7693 35.2064 78.7693 34.9363Z" fill="#55FF00"/>
<path d="M82.9398 33.681H86.1769V34.6852H83.9834V35.4042H85.9981V36.4085H83.9834V37.1997H86.2497V38.204H82.9436V33.681H82.9398Z" fill="#55FF00"/>
<path d="M89.0184 33.681C89.2548 33.681 89.4683 33.719 89.6623 33.7951C89.8563 33.8712 90.0241 33.9739 90.1613 34.1032C90.2986 34.2326 90.4087 34.3848 90.485 34.5598C90.5612 34.7347 90.5993 34.9211 90.5993 35.1151C90.5993 35.37 90.5536 35.5831 90.4663 35.7543C90.3782 35.9254 90.2791 36.0662 90.1723 36.1727C90.0656 36.2792 89.9216 36.3819 89.7386 36.477L90.7442 38.2002H89.5937L88.7668 36.6938H88.2263V38.2002H87.1825V33.681H89.0184ZM89.0184 35.6895C89.2014 35.6895 89.3421 35.6401 89.4412 35.545C89.5403 35.4499 89.5937 35.3282 89.5937 35.1874C89.5937 35.0467 89.5445 34.925 89.4412 34.8299C89.3421 34.7347 89.1972 34.6852 89.0184 34.6852H88.2263V35.6895H89.0184Z" fill="#55FF00"/>
<path d="M95.2007 33.681L93.6536 38.204H92.576L91.0298 33.681H92.1075L93.1131 36.8042L94.1188 33.681H95.2007Z" fill="#55FF00"/>
<path d="M96.9256 38.204H95.8818V33.681H96.9256V38.204Z" fill="#55FF00"/>
<path d="M100.018 37.234C100.304 37.234 100.532 37.1656 100.697 37.0286C100.86 36.8916 100.97 36.7319 101.024 36.5531L102.102 36.6254C102.049 36.8422 101.965 37.0476 101.843 37.2416C101.721 37.4395 101.573 37.6107 101.397 37.7552C101.222 37.8998 101.016 38.0177 100.784 38.1051C100.552 38.1927 100.297 38.2383 100.018 38.2383C99.7095 38.2383 99.424 38.1812 99.1495 38.0633C98.8759 37.9454 98.6437 37.7818 98.4413 37.5764C98.2396 37.3672 98.0795 37.1237 97.9651 36.846C97.8473 36.5683 97.7906 36.2678 97.7906 35.9406C97.7906 35.6211 97.8473 35.3206 97.9651 35.0391C98.0837 34.7576 98.2439 34.5141 98.4413 34.3049C98.6395 34.0957 98.8793 33.932 99.1495 33.8179C99.4206 33.7 99.7095 33.6429 100.018 33.6429C100.285 33.6429 100.536 33.6886 100.761 33.7761C100.99 33.8636 101.191 33.9815 101.367 34.1299C101.542 34.2744 101.69 34.4456 101.808 34.6434C101.927 34.8412 102.014 35.0467 102.067 35.2597L100.99 35.332C100.959 35.2407 100.921 35.1532 100.868 35.0733C100.814 34.9934 100.746 34.9211 100.666 34.8565C100.586 34.7956 100.491 34.7423 100.381 34.7043C100.27 34.6662 100.152 34.6472 100.018 34.6472C99.8544 34.6472 99.7019 34.6777 99.5579 34.7423C99.413 34.8071 99.2868 34.8983 99.18 35.0124C99.0741 35.1265 98.986 35.2635 98.925 35.4233C98.864 35.5831 98.8301 35.7543 98.8301 35.9406C98.8301 36.127 98.8606 36.2982 98.925 36.458C98.986 36.6177 99.0741 36.7509 99.18 36.8688C99.2868 36.9829 99.413 37.0743 99.5579 37.1389C99.7019 37.2036 99.8544 37.234 100.018 37.234Z" fill="#55FF00"/>
<path d="M102.894 33.681H106.132V34.6852H103.938V35.4042H105.953V36.4085H103.938V37.1997H106.204V38.204H102.898V33.681H102.894Z" fill="#55FF00"/>
<path d="M112.816 33.681V38.204H111.882L110.051 35.5488V38.204H109.007V33.681H109.941L111.772 36.3363V33.681H112.816Z" fill="#55FF00"/>
<path d="M113.894 33.681H117.131V34.6852H114.938V35.4042H116.952V36.4085H114.938V37.1997H117.204V38.204H113.897V33.681H113.894Z" fill="#55FF00"/>
<path d="M120.113 38.204H119.069V34.6852H117.775V33.681H121.404V34.6852H120.11V38.204H120.113Z" fill="#55FF00"/>
<path d="M123.96 38.204H123.168L121.728 33.681H122.734L123.599 36.4808L124.459 33.681H125.107L125.972 36.4808L126.836 33.681H127.842L126.402 38.204H125.609L124.783 35.5488L123.96 38.204Z" fill="#55FF00"/>
<path d="M132.698 35.9406C132.698 36.2678 132.64 36.5683 132.522 36.846C132.405 37.1237 132.245 37.3672 132.046 37.5764C131.845 37.7857 131.608 37.9454 131.338 38.0633C131.068 38.1812 130.778 38.2383 130.473 38.2383C130.165 38.2383 129.879 38.1812 129.605 38.0633C129.331 37.9454 129.098 37.7818 128.896 37.5764C128.695 37.3672 128.535 37.1237 128.42 36.846C128.302 36.5683 128.245 36.2678 128.245 35.9406C128.245 35.6211 128.302 35.3206 128.42 35.0391C128.539 34.7576 128.698 34.5141 128.896 34.3049C129.095 34.0957 129.334 33.932 129.605 33.8179C129.875 33.7 130.165 33.6429 130.473 33.6429C130.778 33.6429 131.068 33.7 131.338 33.8179C131.608 33.9359 131.845 34.0995 132.046 34.3049C132.248 34.5103 132.408 34.7576 132.522 35.0391C132.637 35.3206 132.698 35.6211 132.698 35.9406ZM131.654 35.9406C131.654 35.7543 131.624 35.5831 131.559 35.4233C131.498 35.2635 131.41 35.1303 131.303 35.0124C131.197 34.8945 131.071 34.8071 130.926 34.7423C130.781 34.6777 130.63 34.6472 130.465 34.6472C130.302 34.6472 130.149 34.6777 130.005 34.7423C129.86 34.8071 129.734 34.8983 129.628 35.0124C129.521 35.1265 129.434 35.2635 129.373 35.4233C129.312 35.5831 129.278 35.7543 129.278 35.9406C129.278 36.127 129.308 36.2982 129.373 36.458C129.434 36.6177 129.521 36.7509 129.628 36.8688C129.734 36.9829 129.86 37.0743 130.005 37.1389C130.149 37.2036 130.302 37.234 130.465 37.234C130.63 37.234 130.781 37.2036 130.926 37.1389C131.071 37.0743 131.197 36.9829 131.303 36.8688C131.41 36.7547 131.498 36.6177 131.559 36.458C131.624 36.302 131.654 36.1308 131.654 35.9406Z" fill="#55FF00"/>
<path d="M135.395 33.681C135.63 33.681 135.844 33.719 136.038 33.7951C136.232 33.8712 136.4 33.9739 136.537 34.1032C136.674 34.2326 136.785 34.3848 136.861 34.5598C136.936 34.7347 136.975 34.9211 136.975 35.1151C136.975 35.37 136.929 35.5831 136.842 35.7543C136.754 35.9254 136.655 36.0662 136.548 36.1727C136.442 36.2792 136.297 36.3819 136.114 36.477L137.119 38.2002H135.97L135.143 36.6938H134.602V38.2002H133.559V33.681H135.395ZM135.395 35.6895C135.577 35.6895 135.718 35.6401 135.817 35.545C135.916 35.4499 135.97 35.3282 135.97 35.1874C135.97 35.0467 135.92 34.925 135.817 34.8299C135.718 34.7347 135.573 34.6852 135.395 34.6852H134.602V35.6895H135.395Z" fill="#55FF00"/>
<path d="M140.391 38.204L138.917 36.1917V38.204H137.874V33.681H138.917V35.6211L140.285 33.681H141.469L139.873 35.9064L141.576 38.204H140.391Z" fill="#55FF00"/>
<path d="M0.620911 34.0462V0.726196H182.383V36.4618H146.988" stroke="#55FF00" stroke-width="2" stroke-miterlimit="10" stroke-linecap="round" stroke-linejoin="round"/>
<path d="M36.3129 36.4618H0.620911" stroke="#55FF00" stroke-width="2" stroke-miterlimit="10" stroke-linecap="round" stroke-linejoin="round"/>
</g>
<defs>
<clipPath id="clip0_33_6">
<rect width="183" height="39" fill="white"/>
</clipPath>
</defs>
</svg>
