<svg width="216" height="32" viewBox="0 0 216 32" fill="none" xmlns="http://www.w3.org/2000/svg">
<path d="M70.01 6.94V11.05H64.43V28H59.3V11.05H53.72V6.94H70.01Z" fill="#232735"/>
<path d="M77.7146 14.05C78.3146 13.13 79.0646 12.41 79.9646 11.89C80.8646 11.35 81.8646 11.08 82.9646 11.08V16.51H81.5546C80.2746 16.51 79.3146 16.79 78.6746 17.35C78.0346 17.89 77.7146 18.85 77.7146 20.23V28H72.5846V11.26H77.7146V14.05Z" fill="#232735"/>
<path d="M84.3966 19.6C84.3966 17.88 84.7166 16.37 85.3566 15.07C86.0166 13.77 86.9066 12.77 88.0266 12.07C89.1466 11.37 90.3966 11.02 91.7766 11.02C92.9566 11.02 93.9866 11.26 94.8666 11.74C95.7666 12.22 96.4566 12.85 96.9366 13.63V11.26H102.067V28H96.9366V25.63C96.4366 26.41 95.7366 27.04 94.8366 27.52C93.9566 28 92.9266 28.24 91.7466 28.24C90.3866 28.24 89.1466 27.89 88.0266 27.19C86.9066 26.47 86.0166 25.46 85.3566 24.16C84.7166 22.84 84.3966 21.32 84.3966 19.6ZM96.9366 19.63C96.9366 18.35 96.5766 17.34 95.8566 16.6C95.1566 15.86 94.2966 15.49 93.2766 15.49C92.2566 15.49 91.3866 15.86 90.6666 16.6C89.9666 17.32 89.6166 18.32 89.6166 19.6C89.6166 20.88 89.9666 21.9 90.6666 22.66C91.3866 23.4 92.2566 23.77 93.2766 23.77C94.2966 23.77 95.1566 23.4 95.8566 22.66C96.5766 21.92 96.9366 20.91 96.9366 19.63Z" fill="#232735"/>
<path d="M114.178 15.52H111.418V28H106.288V15.52H104.428V11.26H106.288V10.78C106.288 8.72 106.878 7.16 108.058 6.1C109.238 5.02 110.968 4.48 113.248 4.48C113.628 4.48 113.908 4.49 114.088 4.51V8.86C113.108 8.8 112.418 8.94 112.018 9.28C111.618 9.62 111.418 10.23 111.418 11.11V11.26H114.178V15.52Z" fill="#232735"/>
<path d="M124.989 15.52H122.229V28H117.099V15.52H115.239V11.26H117.099V10.78C117.099 8.72 117.689 7.16 118.869 6.1C120.049 5.02 121.779 4.48 124.059 4.48C124.439 4.48 124.719 4.49 124.899 4.51V8.86C123.919 8.8 123.229 8.94 122.829 9.28C122.429 9.62 122.229 10.23 122.229 11.11V11.26H124.989V15.52Z" fill="#232735"/>
<path d="M126.529 17.44C126.529 15.36 126.979 13.51 127.879 11.89C128.779 10.25 130.029 8.98 131.629 8.08C133.249 7.16 135.079 6.7 137.119 6.7C139.619 6.7 141.759 7.36 143.539 8.68C145.319 10 146.509 11.8 147.109 14.08H141.469C141.049 13.2 140.449 12.53 139.669 12.07C138.909 11.61 138.039 11.38 137.059 11.38C135.479 11.38 134.199 11.93 133.219 13.03C132.239 14.13 131.749 15.6 131.749 17.44C131.749 19.28 132.239 20.75 133.219 21.85C134.199 22.95 135.479 23.5 137.059 23.5C138.039 23.5 138.909 23.27 139.669 22.81C140.449 22.35 141.049 21.68 141.469 20.8H147.109C146.509 23.08 145.319 24.88 143.539 26.2C141.759 27.5 139.619 28.15 137.119 28.15C135.079 28.15 133.249 27.7 131.629 26.8C130.029 25.88 128.779 24.61 127.879 22.99C126.979 21.37 126.529 19.52 126.529 17.44Z" fill="#232735"/>
<path d="M155.381 5.8V28H150.251V5.8H155.381Z" fill="#232735"/>
<path d="M166.718 28.24C165.078 28.24 163.598 27.89 162.278 27.19C160.978 26.49 159.948 25.49 159.188 24.19C158.448 22.89 158.078 21.37 158.078 19.63C158.078 17.91 158.458 16.4 159.218 15.1C159.978 13.78 161.018 12.77 162.338 12.07C163.658 11.37 165.138 11.02 166.778 11.02C168.418 11.02 169.898 11.37 171.218 12.07C172.538 12.77 173.578 13.78 174.338 15.1C175.098 16.4 175.478 17.91 175.478 19.63C175.478 21.35 175.088 22.87 174.308 24.19C173.548 25.49 172.498 26.49 171.158 27.19C169.838 27.89 168.358 28.24 166.718 28.24ZM166.718 23.8C167.698 23.8 168.528 23.44 169.208 22.72C169.908 22 170.258 20.97 170.258 19.63C170.258 18.29 169.918 17.26 169.238 16.54C168.578 15.82 167.758 15.46 166.778 15.46C165.778 15.46 164.948 15.82 164.288 16.54C163.628 17.24 163.298 18.27 163.298 19.63C163.298 20.97 163.618 22 164.258 22.72C164.918 23.44 165.738 23.8 166.718 23.8Z" fill="#232735"/>
<path d="M194.73 11.26V28H189.6V25.72C189.08 26.46 188.37 27.06 187.47 27.52C186.59 27.96 185.61 28.18 184.53 28.18C183.25 28.18 182.12 27.9 181.14 27.34C180.16 26.76 179.4 25.93 178.86 24.85C178.32 23.77 178.05 22.5 178.05 21.04V11.26H183.15V20.35C183.15 21.47 183.44 22.34 184.02 22.96C184.6 23.58 185.38 23.89 186.36 23.89C187.36 23.89 188.15 23.58 188.73 22.96C189.31 22.34 189.6 21.47 189.6 20.35V11.26H194.73Z" fill="#232735"/>
<path d="M197.395 19.6C197.395 17.88 197.715 16.37 198.355 15.07C199.015 13.77 199.905 12.77 201.025 12.07C202.145 11.37 203.395 11.02 204.775 11.02C205.875 11.02 206.875 11.25 207.775 11.71C208.695 12.17 209.415 12.79 209.935 13.57V5.8H215.065V28H209.935V25.6C209.455 26.4 208.765 27.04 207.865 27.52C206.985 28 205.955 28.24 204.775 28.24C203.395 28.24 202.145 27.89 201.025 27.19C199.905 26.47 199.015 25.46 198.355 24.16C197.715 22.84 197.395 21.32 197.395 19.6ZM209.935 19.63C209.935 18.35 209.575 17.34 208.855 16.6C208.155 15.86 207.295 15.49 206.275 15.49C205.255 15.49 204.385 15.86 203.665 16.6C202.965 17.32 202.615 18.32 202.615 19.6C202.615 20.88 202.965 21.9 203.665 22.66C204.385 23.4 205.255 23.77 206.275 23.77C207.295 23.77 208.155 23.4 208.855 22.66C209.575 21.92 209.935 20.91 209.935 19.63Z" fill="#232735"/>
<path d="M16 6.10001C16 6.10001 18.2788 0.100006 20.5049 0.100006C22.731 0.100006 25 6.10001 25 6.10001L23.9251 4.83685H17.0847L16 6.10001Z" fill="#232735"/>
<path d="M0 29H41V30C41 31.1046 40.1046 32 39 32H2C0.895431 32 0 31.1046 0 30V29Z" fill="#373B49"/>
<path d="M2 10C2 8.89543 2.89543 8 4 8H37C38.1046 8 39 8.89543 39 10V28H2V10Z" fill="#FFC107"/>
<mask id="mask0_167_28" style="mask-type:alpha" maskUnits="userSpaceOnUse" x="2" y="1" width="37" height="27">
<path d="M2 3C2 1.89543 2.89543 1 4 1H37C38.1046 1 39 1.89543 39 3V28H2V3Z" fill="#232735"/>
</mask>
<g mask="url(#mask0_167_28)">
<path d="M4 28.5C4.33333 26.3333 6.4 22.8 12 26C12.6667 25 14.6 23.5 17 25.5C17.3333 25 18.2 24.1 19 24.5" stroke="#232735" stroke-linejoin="round"/>
<path d="M16.5 28.5C17.5 28 19.5 25.9 19.5 21.5" stroke="#232735" stroke-linejoin="round"/>
<path d="M24.5 28.5C23.5 28 21.5 25.9 21.5 21.5" stroke="#232735" stroke-linejoin="round"/>
<path d="M37 28.5C36.6667 26.3332 34.6 22.7996 29 25.9998C28.3333 24.9997 26.4 23.4996 24 25.4998C23.6667 24.9997 22.8 24.0997 22 24.4997" stroke="#232735" stroke-linejoin="round"/>
<path d="M19.3799 15.7339C19.413 15.4855 19.6249 15.3 19.8755 15.3H21.1245C21.3751 15.3 21.587 15.4855 21.6201 15.7339L22.3534 21.2339C22.3934 21.5337 22.1602 21.8 21.8578 21.8H19.1422C18.8398 21.8 18.6066 21.5337 18.6466 21.2339L19.3799 15.7339Z" stroke="#232735"/>
<mask id="path-11-inside-1_167_28" fill="white">
<path d="M12.6557 21.3341C12.214 21.4895 11.7236 21.3176 11.4756 20.9205L11.012 20.1781C10.7901 19.8229 10.8131 19.3671 11.0696 19.036L15.7453 13L17.0976 18.8278C17.2128 19.3243 16.9362 19.828 16.4554 19.9972L12.6557 21.3341Z"/>
</mask>
<path d="M15.7453 13L16.7194 12.774L16.2437 10.7237L14.9548 12.3876L15.7453 13ZM17.0976 18.8278L18.0717 18.6018L17.0976 18.8278ZM11.0696 19.036L11.8601 19.6484L11.0696 19.036ZM12.6557 21.3341L12.9876 22.2774L12.6557 21.3341ZM12.3238 20.3908L11.8601 19.6484L10.1638 20.7078L10.6274 21.4502L12.3238 20.3908ZM11.8601 19.6484L16.5359 13.6124L14.9548 12.3876L10.279 18.4236L11.8601 19.6484ZM14.7712 13.226L16.1235 19.0539L18.0717 18.6018L16.7194 12.774L14.7712 13.226ZM16.1235 19.0539L12.3238 20.3908L12.9876 22.2774L16.7873 20.9405L16.1235 19.0539ZM16.1235 19.0539L16.1235 19.0539L16.7873 20.9405C17.7489 20.6022 18.3021 19.5948 18.0717 18.6018L16.1235 19.0539ZM11.8601 19.6484L11.8601 19.6484L10.279 18.4236C9.7661 19.0857 9.72011 19.9974 10.1638 20.7078L11.8601 19.6484ZM10.6274 21.4502C11.1235 22.2445 12.1042 22.5882 12.9876 22.2774L12.3238 20.3908L12.3238 20.3908L10.6274 21.4502Z" fill="#232735" mask="url(#path-11-inside-1_167_28)"/>
<mask id="path-13-inside-2_167_28" fill="white">
<path d="M28.1151 21.5443C28.5415 21.7377 29.0451 21.6092 29.3268 21.2352L29.8529 20.5366C30.1048 20.2021 30.1216 19.746 29.895 19.3938L25.7628 12.9736L23.9088 18.6603C23.7509 19.1448 23.9825 19.6706 24.4466 19.881L28.1151 21.5443Z"/>
</mask>
<path d="M25.7628 12.9736L24.812 12.6637L25.4645 10.6625L26.6037 12.4324L25.7628 12.9736ZM29.8529 20.5366L29.0541 19.935L29.8529 20.5366ZM29.895 19.3938L30.7359 18.8526L29.895 19.3938ZM29.3268 21.2352L28.528 20.6336L29.3268 21.2352ZM28.1151 21.5443L27.7021 22.4551L28.1151 21.5443ZM28.528 20.6336L29.0541 19.935L30.6517 21.1382L30.1256 21.8367L28.528 20.6336ZM29.0541 19.935L24.9219 13.5149L26.6037 12.4324L30.7359 18.8526L29.0541 19.935ZM26.7135 13.2836L24.8596 18.9703L22.9581 18.3503L24.812 12.6637L26.7135 13.2836ZM24.8596 18.9703L28.528 20.6336L27.7021 22.4551L24.0337 20.7918L24.8596 18.9703ZM24.8596 18.9703L24.0337 20.7918C23.1054 20.3709 22.6422 19.3193 22.9581 18.3503L24.8596 18.9703ZM29.0541 19.935L29.0541 19.935L30.7359 18.8526C31.1892 19.5569 31.1556 20.4691 30.6517 21.1382L29.0541 19.935ZM30.1256 21.8367C29.5622 22.5849 28.5551 22.8418 27.7021 22.4551L28.528 20.6336L28.528 20.6336L30.1256 21.8367Z" fill="#232735" mask="url(#path-13-inside-2_167_28)"/>
<path d="M20.45 1C20.4695 0.999878 20.4805 0.999879 20.5 1C23.4289 1.01815 25 8 25 8H16C16 8 17.5328 1.01822 20.45 1Z" fill="#FFC107"/>
<path fill-rule="evenodd" clip-rule="evenodd" d="M16.5 19.5917C15.658 17.2805 14.9138 13.6273 15.1878 10.0246C15.4649 6.3799 16.7956 2.6919 20.2374 0.574158L20.4997 1.00044L20.762 0.574173C24.2034 2.69193 25.534 6.37993 25.8111 10.0246C26.0848 13.6258 25.3415 17.2776 24.5 19.5889V20H24H16.999H16.5V19.5917ZM17.3511 19H23.6479C24.4121 16.7904 25.0657 13.4122 24.8139 10.1004C24.557 6.72108 23.3685 3.50046 20.4997 1.59329C17.6305 3.50047 16.4418 6.7211 16.1849 10.1004C15.9331 13.4122 16.5867 16.7904 17.3511 19Z" fill="#232735"/>
<rect x="17.5" y="7.10001" width="6" height="6" rx="3" stroke="#232735"/>
<rect x="17" y="4.5" width="7" height="1" fill="#232735"/>
</g>
</svg>
